<svg viewBox="0 0 220 160" fill="none" xmlns="http://www.w3.org/2000/svg"><g clip-path="url(#clip0)"><path d="M46.7716 53.8098c.4955-.2972 17.5716-5.9876 27.8937 2.2054l4.8091-23.5053s-6.8071-6.4662-21.9226-.5172c-.3929.1687-10.7802 21.8171-10.7802 21.8171z" fill="#fff"/><path d="M74.6696 56.0223s7.1801-13.173 20.4574-11.3148l3.5761-23.9134s-17.5007 1.8228-19.2179 11.719l-4.8156 23.5092z" fill="#CFCEDB"/><path d="M82.3176 31.4548s-1.4979 6.398-1.3129 6.287c.1849-.1109 10.5004-4.6727 10.5004-4.6727l1.0345-6.7512-10.222 5.1369zM80.7164 40.0763l-.75 4.9643 5.0922-3.2363.2202-4.0056-4.5624 2.2776zM58.9966 34.5213l-2.026 5.0983 15.5584-.763 2.0022-4.9884-15.5346.6531zM57.1326 41.8658c-.147.1743-2.6965 5.6728-2.6965 5.6728l7.3311-.3423 1.7824-5.22-6.417-.1105zM66.5622 41.6229c-.0074.2722-2.3653 5.6558-2.3653 5.6558l6.5949.8263 1.3161-6.5663-5.5457.0842z" fill="#302735"/><path d="M177.264 47.2142s3.256 8.7972 3.456 8.5623c.194-.231 15.341-6.2179 15.341-6.2179l-3.471-7.8366-15.326 5.4922zM63.5722 84.3971c.1561.2603 6.0926 3.9873 6.0926 3.9873l7.0633-11.0467-6.5178-3.3783-6.6381 10.4377z" fill="#fff"/><path d="M66.6083 83.9629c.1097.1829 1.6377 1.3226 1.6377 1.3226l4.4095-6.9202-1.5998-1.2593-4.4474 6.8569zM180.531 48.5732s1.724 4.5513 1.862 4.3921c.134-.1664 5.204-2.1365 5.204-2.1365l-2.067-4.3453-4.999 2.0897z" fill="#302735"/><path d="M160.364 73.1617c-.154 3.608.537 6.3716 2.84 9.1353.921 1.0747 1.228 1.305 1.535 2.5333.308 1.305.154 2.6868.615 3.9919 1.842 5.0666 7.139 5.7575 9.979 9.8262 1.382 1.9956 1.766 4.9896.077 6.7556-.844.921-2.073 1.382-3.301 1.305-1.228-.077-4.836.077-5.527-.921.077 1.535 1.535 2.226.153 2.687-1.305.46-2.686.153-3.992-.231-.614-.153-1.381-.614-1.228-1.228l-8.291-10.0565" fill="#3E3B5B"/><path d="M142.937 75.0802c0-.306-.076-.153 0 0z" fill="#FDBD8D"/><path d="M166.275 82.9879c-.922-.4606-1.843-1.2283-2.15-2.3031-.384-1.305-1.842-6.2181-2.38-7.5232-1.689-3.8383-6.909-4.8363-9.596-4.2989-6.294 1.1515-5.987 4.4525-8.29 5.8343-.768.4606-.998.3838-.998.3071 0 .1535-.154.3838-.307.7676-1.152 2.5334.383 8.6747.998 11.3616.614 2.6101 1.458 5.2969 3.301 7.2161.153.1536.307.3071.46.4606l-3.454 9.826s2.379-1.075 2.61-.46c1.074 2.686 5.988 4.682 5.988 4.682l4.298-12.4359c1.689-1.1515 3.225-.6909 6.526-1.6121 3.915-1.1515 2.149-6.6787 2.226-8.8282.307-.6142.921-1.4586 1.151-1.8424.231-.3839.077-.9212-.383-1.1515z" fill="#FDBD8D"/><path d="M153.224 53.4326l-12.282 61.6444-12.897-5.758 16.198-56.1935" fill="#FDBD8D"/><path d="M156.372 18.1196l-27.867 9.2121c-2.994.9979-6.218-.6142-7.216-3.6081-.998-2.9939.614-6.2182 3.608-7.2161l27.867-9.2121c2.994-.99797 6.218.61414 7.216 3.6081.998 2.9939-.614 6.2181-3.608 7.2161z" fill="#F9A230"/><path d="M157.907 15.8166c.23-.1535.461-.3839.614-.6142.691-1.0747.768-2.4565.461-3.6848-.384-1.305-1.228-2.45653-2.457-3.07067-.384-.15354-.844-.30707-1.228-.15354-.537.23031-.921.92121-.921 1.53535-.077 1.84246.307 3.83836 1.535 5.22016.461.6142 1.305 1.0748 1.996.7677z" fill="#827B7A"/><path d="M156.602 52.7415c-.461 0-.844-.307-.921-.7676l-4.99-22.109c-1.075-4.3757 0-7.2161 3.147-8.4444 5.604-2.1495 7.907-3.9919 7.6-6.2181-.153-1.1516-.691-2.0728-1.381-2.4566-.768-.4606-1.843-.4606-3.071-.0768-.461.1536-.998-.0767-1.228-.5373-.231-.4606.076-.998.537-1.2283 1.766-.6142 3.378-.5374 4.683.2303 1.228.7677 2.073 2.0727 2.303 3.8383.614 4.1455-4.069 6.5253-8.752 8.2909-2.149.8445-2.763 2.7636-1.996 6.2182l4.99 22.1089c.154.5374-.23.998-.691 1.1515h-.23z" fill="#AFA3A8"/><path d="M159.98 37.3882c.307-.0768 2.61.5373 2.687 1.8424.153 1.8424-1.536 2.3798-1.536 2.3798s1.305.8444 1.305 2.2262-2.917 2.4566-2.917 2.4566 1.459.1535 1.075 1.6121c-.384 1.4586-6.372 2.4565-6.372 2.4565l-.998 2.994s-3.224.0767-4.299.0767c-1.151 0-4.683-.3838-4.683-.3838.154-1.2283.384-2.5333.538-3.7616.153-1.2283.384-2.3798.537-3.6081.154-.9979.154-2.0727.614-2.9939.845-1.6889 1.536-3.301 2.918-4.606 1.612-1.5354 3.761-2.4566 5.911-2.9939 1.458-.3839 2.994-.1536 4.452-.5374.691-.1536 1.228-.5374 1.843-.7677.383-.1535.767-.3071 1.151-.2303.998.3071.614 1.4586.23 1.996-.537.8444-1.458 1.4585-2.379 1.8424-.922.3838-1.843.6909-2.764 1.1515" fill="#FDBD8D"/><path d="M58.9142 171.089s28.1741 3.531 54.5058 0c25.947-3.454 9.788-48.336 9.788-48.336l-13.281 11.746-36.0034-.384-15.0094 36.974z" fill="#5A66FF"/><path d="M156.449 114.079c-.768-2.534-3.685-6.526-4.299-9.443-2.15-.767-6.219-.998-6.526-3.761 0-.154-.153-.307-.307-.307-.537-.077-.998-.154-1.535-.307-1.535 8.598-14.816 21.111-11.976-1.1519-1.458.4606-2.61 4.1459-2.61 4.1459l-14.355 45.83s3.103 25.49 7.325 23.878c2.764-.691 13.862-2.223 21.616-5.831.384-4.452 6.602-28.488 9.289-31.558 8.367-9.213 5.911-13.051 3.378-21.495z" fill="#FB804A"/><path d="M97.4144 103.562s-6.7556-6.756-20.4969 0c-9.7494 4.759-19.0383 19.268-22.8766 30.63-1.6122 4.759-1.5354 7.676-1.3051 11.131.8445 11.822 49.4382-3.224 49.4382-3.224l2.073-5.988s15.123 14.662 18.117 12.052c2.61-2.303 4.606-26.484 6.755-31.167 9.826-21.5718 14.586-61.8746 14.586-61.8746l-12.897-2.0727s-9.673 47.0583-22.493 53.5833c-2.994 1.459-10.9006-3.07-10.9006-3.07z" fill="#5A66FF"/><path d="M145.394 109.78s2.073 15.89 7.446 15.66c5.374-.23 1.92-15.967 1.92-15.967l-9.366.307z" fill="#F4E6ED"/><path d="M160.057 81.9899c-.154-.6141-.077-1.2283.153-1.6121h-.384c-.614.2303-.921 1.0747-.691 1.996.307.9212.998 1.4585 1.689 1.2282.23-.0767.384-.2303.538-.3838-.615 0-1.075-.5374-1.305-1.2283z" fill="#fff"/><path d="M161.515 81.6828c-.23-.6909-.767-1.2283-1.305-1.305-.23.3838-.307.998-.153 1.6121.23.6909.767 1.2283 1.305 1.305.23-.4606.307-.9979.153-1.6121z" fill="#302933"/><path d="M126.279 149.084c.537-.46.845-.921.845-1.381 0-1.996-5.758-3.225-12.821-2.534-8.214.845-12.436 3.455-12.436 5.451 0 .46 0 .844.461 1.151 1.842-1.535 6.525-3.07 11.975-3.685 5.451-.614 10.134-.153 11.976.998z" fill="#D8D4D6"/><path d="M129.81 174.495l-2.687-26.792-25.486 3.147 2.687 26.869h.076c.768 1.842 6.065 3.301 14.049 2.073 6.909-1.075 11.361-3.301 11.361-5.297z" fill="#D8D4D6"/><path d="M125.434 149.084c.538-.46.768-.844.845-1.305 0-1.842-5.297-2.763-11.899-1.996-6.602.768-11.976 2.841-11.976 4.76 0 .384.231.768.691 1.075 1.766-1.459 6.065-2.841 11.131-3.455 5.144-.614 9.596-.153 11.208.921z" fill="#A8A8A8"/><path d="M114.303 152.539c5.067-.614 9.443-1.996 11.131-3.454-1.688-1.075-6.064-1.536-11.208-.922-5.066.614-9.442 1.996-11.131 3.455 1.689 1.075 6.065 1.535 11.208.921z" fill="#3DADAD"/><path d="M123.515 150.236c.845-.384 1.459-.768 1.919-1.151-1.688-1.075-6.064-1.536-11.208-.922-5.066.614-9.442 1.996-11.131 3.455.461.307 1.152.537 1.919.768 2.227-.998 5.528-1.843 9.212-2.303 3.762-.461 7.14-.384 9.289.153z" fill="#CC5444"/><path d="M114.303 152.539c3.685-.461 7.063-1.305 9.212-2.303-2.149-.537-5.527-.614-9.289-.23-3.684.46-7.062 1.305-9.212 2.303 2.227.537 5.528.614 9.289.23z" fill="#CC5444"/><path d="M97.9517 107.17s6.2183 11.361 3.5313 23.798l7.984-.461 6.295-2.687s-2.534-17.733-4.146-20.727c0 0-.998 4.299-4.452 4.452-3.455.154-9.2123-4.375-9.2123-4.375z" fill="#fff"/><path d="M137.079 55.1908c3.566.5207 6.536.3987 6.634-.2725.098-.6713-2.713-1.6376-6.279-2.1583-3.566-.5207-6.536-.3987-6.634.2725-.098.6712 2.713 1.6375 6.279 2.1583z" fill="#D32A53"/><path d="M140.942 54.8143c.23-1.0747 1.074-3.4545 2.456-3.4545s3.685-1.9192 3.685-1.9192l-2.533-8.2909-2.764-2.8404-4.222 1.9192-1.075 3.9151-4.145 2.0728s1.689 3.608 1.919 4.5292c.23.9212-1.075 3.6849-1.075 3.6849s2.303.6141 4.453.9212c1.688.2303 3.147.2303 3.147.2303s.154-.6142.154-.7677z" fill="#E5A991"/><path d="M131.806 28.6367l1.612 4.9899c.461 1.2282 1.536 1.9959 2.764 2.1494 1.075.0768 1.919.8445 2.303 1.8425l3.685 12.2827c.23.8445.691 1.5354 1.458 1.996 1.689.9979 3.839.1535 4.453-1.6889.307-.7677.153-1.6889-.23-2.4566l-4.913-12.1292c-.384-.8444-.154-1.8424.46-2.5333.845-.9212 1.152-2.2263.691-3.4545l-1.535-4.6061-10.748 3.6081z" fill="#827B7A"/><path d="M144.857 37.6185s-3.532 2.1495-5.528 3.6848c-1.996 1.4586 0 5.604 2.073 4.7596 2.073-.8445 4.529-3.4545 5.374-4.9131 1.151-2.1495-.154-3.7616-1.919-3.5313z" fill="#FDD5BA"/><path d="M146.699 40.3053s.921-.4606 1.612 1.0748c.614 1.4585-4.069 6.6787-6.602 6.909-2.456.2303-.614-2.6868-.614-2.6868l5.604-5.297z" fill="#FDD5BA"/><path d="M134.34 49.5941s-1.843-.8444-2.073-5.604c-.23-4.7596 2.61-5.9111 5.297-6.5252 2.38-.5374 6.064-1.6889 8.367-2.5333.538-.1536 1.152.1535 1.229.7677.153 1.4585 0 3.1474-2.764 3.7615-3.838.9213-4.222.7677-4.069 3.7616.077 1.6122-1.074 5.2202-2.763 5.9879-1.919 1.0747-3.224.3838-3.224.3838z" fill="#FDBD8D"/><path d="M147.85 42.7618s1.075.9212.384 2.2262c-.691 1.3051-3.608 5.2202-4.836 4.6061-1.228-.6142-.307-1.9192-.307-1.9192l4.759-4.9131z" fill="#FDD5BA"/><path d="M140.788 17.7357c-.154-.5374-.691-.8444-1.152-.6141l-5.757 2.1494c-.23 1.0748.46 5.5273.46 5.5273-.537-1.4586-2.533-3.6848-3.301-4.4525l-1.842.6909c-.537.1535-.691.7677-.461 1.2283l3.148 6.3716 11.054-3.4545-2.149-7.4464z" fill="#F95346"/><path d="M155.067 101.258c.614 0 1.458 1.689.998 2.304-.845 1.151-2.303.767-2.303.767s.844-1.151 1.305-3.071z" fill="#C8C0CC"/><path d="M157.984 79.4566c.384-.5374.998-.998 2.38-1.0748 1.381-.0768 1.535.6909 1.305.9212-.231.2303-1.459-.1535-1.996 0-.461.1535-1.305 1.0748-1.689.998-.384-.0768-.154-.6909 0-.8444z" fill="#28253A"/><path d="M162.59 89.6666c-1.689 0-2.84-.9212-2.84-.9212-.077-.0768-.154-.2303 0-.3071.076-.0768.23-.1535.307 0 .076.0768 1.612 1.3051 3.915.6142.153-.0768.23 0 .307.1535.077.1535 0 .2303-.154.3071-.614.0767-1.074.1535-1.535.1535z" fill="#CC886D"/><path d="M158.137 72.3172s1.229 4.9899-4.375 10.2868c-1.536 1.4586-2.61 2.9172-2.61 5.0667 0 1.9959.844 4.0686 2.379 5.3737.538.5374 1.229.9212 1.843 1.305 2.303 1.3051 4.759 2.3031 7.062 3.6081 2.303 1.305 4.53 2.9175 5.988 5.1435 1.459 2.226 1.996 5.143.845 7.6-.614 1.228-1.536 2.303-2.61 3.224-2.15 1.843-4.76 3.224-7.6 3.455-2.841.23-5.835-.922-7.37-3.301-1.382 1.535-4.069 1.535-5.758.307-3.377-2.38-4.299-4.53-4.375-8.214-.154-4.069 2.533-10.7478 3.454-14.663l5.067-22.3392c-.077 0 7.523-2.9939 8.06 3.1474z" fill="#28253A"/><path d="M157.063 71.2425s2.226 4.9131 5.911 5.5272c0 0 .537-11.0545-9.903-8.0605" fill="#28253A"/><path d="M150 69.1698c.845-1.0748 1.535-1.6122 2.61-2.5334 1.612-1.4585 3.608-2.6868 5.758-2.6868 1.075 0 2.303.4606 2.687 1.5353.307.7677-.077 1.6889-.538 2.3798 1.305-.6141 2.841-.5374 4.146.1536.307.1535.614.3838.767.6909.307.5373.154 1.3818-.307 1.8424-.46.5373-1.074.7676-1.689 1.0747 1.305.3071 2.534 1.2283 2.918 2.4566.383 1.2282-.231 2.8404-1.536 3.2242-.921.2303-1.919-.1535-2.763-.6909-1.459-.9212-2.764-2.0727-3.685-3.5313-.538-.7677-1.075-1.6889-1.919-1.9192-.845-.2303-1.689.0768-2.534.1535-.921 0-1.765-.307-2.456-.9979" fill="#28253A"/><path d="M157.063 71.2425s14.662 3.4545 8.367-4.6828c-5.757-7.6-14.969.3071-14.969.3071l-.998 5.1434 7.6-.7677z" fill="#28253A"/><path d="M105.936 117.303c-.461 0-1.843.23-1.843.23l.614 3.915 1.996-.307s1.459-.461 1.305-2.073c-.153-1.612-1.612-1.689-2.072-1.765zm.383 2.687l-.614.153-.23-1.535s.384-.077.537-.077c.231 0 .614.077.691.614.154.614-.384.845-.384.845zM110.158 116.535c-1.075.154-1.843 1.228-1.689 2.457.153 1.151 1.228 1.996 2.303 1.842 1.075-.153 1.842-1.228 1.689-2.456-.154-1.152-1.228-1.996-2.303-1.843zm.384 2.917c-.384.077-.845-.23-.845-.691-.077-.46.231-.844.614-.921.384-.077.845.23.845.691.077.461-.23.921-.614.921z" fill="#000200"/><path d="M104.861 122.446s1.382.768 3.992.307c2.61-.46 3.454-1.458 3.454-1.458l.231 1.458s-1.689 1.459-3.532 1.689c-1.842.23-3.915-.691-3.915-.691l-.23-1.305z" fill="#FC484C"/><path d="M121.289 129.125c.614-.153 1.152-.384 1.612-.691.461-.23.845-.614 1.075-.921.307-.461.461-1.151-.844-1.151-3.225 0-6.449-.384-7.831.153-1.458.537-2.84 1.075-3.992 1.535-5.22 2.227-7.293 3.916-5.45 3.609l-2.687 8.444 1.459.768c.46-.077 7.062 0 12.129-.231 2.763-.153 4.759-2.072 3.147-2.917 0 0 2.61-.614 1.305-2.226 0 0 3.071-.768 1.075-2.764 0 0 1.689 0 1.843-1.151.383-1.612-1.996-2.534-2.841-2.457z" fill="#FDBD8D"/><path d="M114.457 127.82c2.149.384 6.909 1.305 6.909 1.305s1.151-.23 1.689-.614c.46-.307.69-.537.921-.921.307-.461.46-1.152-.845-1.152-3.224 0-6.448-.384-7.83.154-1.075.384-2.073.767-2.994 1.151-.384.154-.384.231.077.154.614-.231 1.305-.231 2.073-.077z" fill="#EAA98F"/><path d="M104.324 142.329l2.226-11.899-52.4322 3.762s-4.9899 10.901.4606 14.432c7.6767 4.99 49.7456-6.295 49.7456-6.295z" fill="#3E51DD"/><path d="M125.127 145.63c-.076-2.226-.921-7.6-2.149-11.515-.154.384-.23.537-.537.768 1.074 3.838 1.842 8.751 1.842 10.824.307 0 .614 0 .844-.077z" fill="#28253A"/><path d="M101.636 151.081c-.076-2.687-.307-4.607 1.689-4.607 1.766 0 2.38 6.756 2.38 6.756" fill="#D8D4D6"/><path d="M117.911 151.004c-1.458.46-2.994.691-4.299 1.228-1.228.537-2.994.23-4.222-.23-.46-.154-.844-.384-1.305-.538-.844-.307-2.149-.077-1.766 1.152.154.384.384.767.615 1.151.537 1.075.307 2.303.844 3.378.23.461.844.844 1.305.537.537-.383.077-1.228.384-1.842.23-.384.768-.537 1.228-.307.384.153.691.614.921.998.538 1.228.461 2.533.538 3.838.077 1.305.307 2.687 1.228 3.608.307.307.768.538 1.152.538.767 0 1.381-.691 1.612-1.382.153-.768 0-1.536-.154-2.303-.153-.768-.384-1.536-.23-2.303.077-.614.537-1.305 1.151-1.228.307 0 .614.23.845.46.46.384.921.768 1.535.998.538.23 1.228.23 1.766-.153.537-.384.691-1.152.614-1.766-.077-.614-.307-1.228-.537-1.843-.231-.614-.384-1.305-.154-1.919.077-.384.307-.691.384-.998.077-.307.077-.767-.154-.998-.153-.153-.307-.23-.537-.23-.998-.384-1.842-.077-2.764.154z" fill="#F95346"/><path d="M119.523 128.664c-2.226-1.765-4.222-1.228-5.066-.997-8.368 2.379-11.823 19.422-11.976 20.113-.077.23.077.46.307.46.23.077.461-.077.461-.307 0-.153 3.838-18.731 12.589-19.729 1.382-.154 3.839.537 3.685.46z" fill="#28253A"/><path d="M122.671 145.63s.384-2.994 1.996-2.994 1.996 4.376 1.996 4.376l-1.382-.768-2.61-.614z" fill="#D8D4D6"/><path d="M120.986 77.4476c-.378 2.9028-1.072 8.1265-1.072 11.6539 0 3.5203-1.015 14.1595-9.583 13.6275-11.2847-.703-13.5809-2.8962-14.6519-13.1946-1.0711-10.2983 5.9079-22.5555 16.4859-22.1084 11.537.4826 9.276 6.5083 8.821 10.0216z" fill="#FBBB9D"/><path d="M97.5902 92.3022L95.5101 103.2s4.165 9.607 12.0489 9.607c4.816 0 4.207-2.08 4.641-4.11.385-1.774 1.701-9.9716 1.701-9.9716l-16.3108-6.4232z" fill="#FBBB9D"/><path d="M113.397 102.388l-.665 3.797s-14.6028 3.847-15.8768-10.0145c0 0 4.1578 7.7435 16.5418 6.2175zM116.148 87.9514c.476.4756 1.05.9582 1.113 1.6324.147 1.7389-3.29 2.8248-4.949 3.13.98-.5962 2.058-1.0646 2.597-2.0228.259-.4613.245-1.0291.112-1.5401-.203-.7665-.644-1.4408-1.001-2.1505-.308-.6175-.574-1.3272-.49-2.0299.077-.6103.364-.6174.721-.1703.371.4613.497 1.1001.777 1.6182.287.5678.672 1.0859 1.12 1.533z" fill="#EFA689"/><path d="M109.463 82.6853c.126-.2981.343-.5252.602-.6742-.224-.142-.483-.2272-.763-.2272-.791 0-1.435.653-1.435 1.455s.644 1.455 1.435 1.455c.259 0 .497-.0781.707-.1988-.588-.3761-.84-1.1426-.546-1.8098z" fill="#fff"/><path d="M110.737 83.2389c0-.5181-.266-.9724-.672-1.2279-.259.1491-.476.3762-.602.6743-.287.6671-.042 1.4336.553 1.8098.427-.2555.721-.7168.721-1.2562z" fill="#3F2E28"/><path d="M117.52 82.6853c.126-.2981.343-.5252.602-.6742-.224-.142-.483-.2272-.763-.2272-.791 0-1.435.653-1.435 1.455s.644 1.455 1.435 1.455c.259 0 .497-.0781.707-.1988-.581-.3761-.833-1.1426-.546-1.8098z" fill="#fff"/><path d="M118.801 83.2389c0-.5181-.266-.9724-.672-1.2279-.259.1491-.476.3762-.602.6743-.287.6671-.042 1.4336.553 1.8098.427-.2555.721-.7168.721-1.2562zM106.544 80.0734c-.042.6459.371.8588 2.415.8091 2.044-.0496 2.688-.149 2.786-.8091.098-.6529-2.065-.7097-2.562-.7097-.497 0-2.59-.0994-2.639.7097zM114.846 80.194c-.042.6458.371.8588 2.415.8091 2.045-.0497 2.689-.1491 2.787-.8091.098-.6601-2.066-.7098-2.563-.7098-.497 0-2.59-.0993-2.639.7098z" fill="#3F2E28"/><path d="M99.1302 88.6259s2.1278 1.0646 2.6808-2.4628c.644-4.152 2.198-12.456 2.198-12.456l-7.847-3.2932s-2.1631 6.2102-1.9951 11.3062c.168 5.0959 4.9633 6.9058 4.9633 6.9058z" fill="#514441"/><path d="M108.602 92.9125s.917 3.5558 4.508 2.6829l-4.508-2.6829z" fill="#9E533F"/><path d="M98.6124 82.5008c-.014-.3477-.098-.6813-.273-.9794-.378-.6672-1.2111-1.6324-2.7652-1.1782-3.4372.9866-3.4372 8.4956 2.1842 9.0847.609.0639 1.141-.4187 1.113-1.0433-.119-2.3847-.224-4.9114-.259-5.8838z" fill="#FBBB9D"/><path d="M98.6611 83.6294s-1.463-2.1293-2.5271-1.9376c-1.0711.1845-1.6031 2.2498-1.3791 3.4422 0 0 .553-2.7325 1.5401-2.7112.343.0071 2.4011 2.1008 2.4011 2.1008l-.035-.8942z" fill="#EFA689"/><path d="M99.8793 74.1259s8.4427 4.6772 13.7067 2.8744c5.264-1.8027 1.596-5.465 1.596-5.465s1.925 4.3436 6.14 3.3145c3.388-.8304 7.245-7.3458-.575-11.7249-5.544-3.1016-12.117.9723-15.876 1.2704-5.3418.4259-9.318 2.9596-10.2631 11.3133-.819 7.2393 5.2714-1.5827 5.2714-1.5827z" fill="#3F2E28"/><path d="M32.4064 120.316s10.843 2.957 13.4844 10.98l15.8665-13.937s-2.6415-7.182-10.3123-9.994l-19.0386 12.951z" fill="#fff"/><path d="M45.8969 131.296s5.2947-5.977 12.7474-2.869l13.6142-11.564s-3.2252-4.715-10.5011.496l-15.8605 13.937z" fill="#CFCEDB"/><path d="M55.7787 112.977s2.8891 3.39 2.8301 3.415c-.059.019-.7901.571-.7901.571l-2.7712-3.264.7312-.722zM54.4698 114.427l-.8313.741 2.6532 3.265.7724-.672-2.5943-3.334zM53.0429 116.198l2.4587 3.013-.9493.76-2.1403-2.53.6309-1.243zM44.529 113.95l8.2369 7.352-4.6167 4.049-8.5317-7.157 4.9115-4.244z" fill="#302735"/><path d="M167.093 148.292c-6.403-9.474-20.141-9.976-20.141-9.976l14.835-12.631s9.681-1.331 15.766 6.818l-10.46 15.789z" fill="#fff"/><path d="M167.093 148.291s11.244-8.142 22.794-4.156l7.341-15.292s-11.71-2.995-19.669 3.66l-10.466 15.788z" fill="#CFCEDB"/><path d="M162.476 128.516l3.656 14.176 1.456-.515-3.791-14.081-1.321.42z" fill="#302735"/><path d="M153.838 135.416s-.353 1.406-.218 1.362c.136-.044 21.156-3.095 21.108-3.24-.047-.144-.176-1.362-.176-1.362l-20.714 3.24zM174.947 144.424c-.13.038.53-4.175 5.241-4.972 4.711-.797 5.024-2.159 5.201-3.986.177-1.833 2.423-6.291 10.182-3.095l-5.684 11.771c0-.007-5.86-2.486-14.94.282z" fill="#302735"/></g><defs><clipPath id="clip0"><path fill="#fff" d="M0 0h220v160H0z"/></clipPath></defs></svg>
