<svg viewBox="0 0 220 160" fill="none" xmlns="http://www.w3.org/2000/svg"><g clip-path="url(#clip0)"><path d="M229.377 16.2399c58.735 51.9471 6.801 110.6021 6.801 138.2131-3.555 4.68-2.751-42.225-3.678-36.453H100l5.5-101.7601h123.877z" fill="#F9C3AF"/><path d="M111.753 44.0074H241l-2-2.9639H111.753v2.9639zM114.752 84.0074H244l-2-2.9639H114.752v2.9639zM114.752 118.964H244L242 116H114.752v2.964z" fill="#FFDCCC"/><path d="M151 13h3v105h-3V13zM202 118h3V16.7745L202 13v105z" fill="#FFDCCC"/><path d="M112.062 16.2399l-5.565-4.2119c-.927-.624-.463-2.028.619-2.028H241s-10.821 6.3959-11.44 6.2399c-.309-.156-117.498 0-117.498 0z" fill="#E5B1A1"/><g clip-path="url(#clip1)"><path d="M174.455 148.931c-.188-.284-.564-.568-.845-.663l-10.611-4.265c-.564-.189-1.127-.189-1.596.095l-27.983 9.762 12.677 4.738s2.441 5.592 2.911 5.402c.375-.189 21.034-7.866 26.855-9.856.752-.284 1.033-1.137.658-1.801l-2.066-3.412z" fill="#936A79"/><path d="M131.917 155.471l-.563 3.411c-.188 1.138.563 2.18 1.596 2.37L148.632 164c.657.095 1.127-.663.751-1.232l-2.535-3.507c-.188-.284-.564-.568-.845-.663l-11.362-4.644c-1.221-.474-2.536.19-2.724 1.517z" fill="#BC9FAA"/><path d="M43.1807 115.761c-.1878 0-6.1036-.853-7.4182 1.896-.2817.568.1878 1.232.8451 1.232H45.81" fill="#D3C4C2"/><path d="M50.3168 108.654c-.1878-.664-.4695-1.327-.939-1.896.1878-.853.6573-3.222-.3756-3.601-1.0329-.284-1.7842 1.137-1.972 1.611-.7512-.284-1.5024-.474-2.3475-.474-.6573 0-1.2207.095-1.7841.284-.4695-.663-1.4086-1.99-2.2537-1.8-.8451.189-.7512 2.653-.6573 3.98-.6573.948-1.0329 2.085-1.0329 3.412-.0939 2.748-.3756 10.709 6.5731 10.899 7.7.189 14.5548.094 14.5548.094l5.2585-11.372c-.0939-.095-6.9487-6.539-15.0243-1.137z" fill="#F7F7F7"/><path d="M42.2412 107.516c.2593 0 .4695-.212.4695-.473 0-.262-.2102-.474-.4695-.474s-.4695.212-.4695.474c0 .261.2102.473.4695.473zM47.3119 107.516c.2593 0 .4695-.212.4695-.473 0-.262-.2102-.474-.4695-.474s-.4695.212-.4695.474c0 .261.2102.473.4695.473zM43.7437 108.275c-.0939 0-.1878-.095-.1878-.19s.0939-.19.1878-.284c.7512-.095.7512-.853.7512-.853 0-.095.0939-.19.1878-.19s.1878.095.1878.19c0 .094 0 .853.7512.853.0939 0 .1878.094.1878.189s-.0939.19-.1878.19c-.4695 0-.7512-.285-.939-.569-.1878.284-.4695.569-.939.664z" fill="#2C2E33"/><path d="M45.6217 121.069h-9.2024c-.6573 0-1.0329-.664-.8451-1.232 1.3146-2.749 7.2305-1.896 7.4183-1.896 1.0329.095 2.1597.853 2.6292 3.128zM60.1764 117.752c-3.3805.568-6.7609-1.138-9.8597-2.749-.6573-.379-1.4085-.663-1.9719-.189-.5634.474-.4695 1.327-.1878 1.99.7512 1.895 2.4414 3.317 4.2256 4.075 1.878.758 3.9438.948 5.9158.853 1.2207-.095 2.4414-.284 3.3804-1.137.9391-.758 1.4086-2.275.7513-3.222" fill="#C9BBB9"/><path d="M68.6276 96.3333l-32.154 67.1577s14.4744 1.706 20.8597 0c3.1926-.853 18.9003-31.145 18.9003-31.145l10.0997-15.153 11.7017 51.895 20.86-5.597-11.016-55.975-39.2514-11.1827z" fill="#FB804A"/><path d="M77.7361 99.0817s-4.3194 9.4773-14.4608 9.6663l5.3524-12.4147 9.1084 2.7484z" fill="#F4622F"/><path d="M72.8532 76.8104l-7.8877 19.6177s.0939-.4739 1.5963-.1896c2.1597.3791 6.2914 1.6112 7.5121 1.8955 8.1695 2.085 32.3961 9.288 32.3961 9.288l-7.6999-7.014-25.9169-23.5976z" fill="#5A66FF"/><path d="M130.697 135.948s-1.878.947-3.944 1.99c-.751.379-1.503-.379-1.221-1.137.564-1.611 2.723-3.223 2.723-3.223l2.442 2.37z" fill="#FBBB9D"/><path d="M65.0594 55.4869c2.2537.1896 12.5829 1.1373 12.5829 1.1373L74.1679 71.219c-3.85-6.9183-8.0755-14.0262-9.1085-15.7321zm51.0826 59.2321c4.226-1.042 8.451-2.464 12.677-3.601-2.723-9.098-4.226-21.4186-7.231-39.3304-2.629-15.2582-14.554-21.6079-14.554-21.6079l-11.8321-5.1176s-43.1948-8.8137-45.2607 3.4118c-1.5963 9.4771 21.034 40.0882 21.034 40.0882l35.5888 18.6699 4.695-25.3039c-.469 6.634.564 22.2709 4.883 32.7909z" fill="#5A66FF"/><path d="M115.86 19.6634c.282.0948 6.385 4.2647 5.822 10.7091-.563 6.3497-3.662 7.5817-5.165 7.487-1.502-.0948-2.441-11.3726-2.441-11.3726l1.784-6.8235z" fill="#543732"/><path d="M91.8213 44.4935s-3.0049 27.3888-8.4512 43.2156l.1878 5.9706 17.0901 6.4443s9.484-46.0586 9.296-47.9541c-.094 0-6.103-6.2549-18.1227-7.6764z" fill="#F7F7F7"/><path d="M117.926 26.487c.376 2.5588.563 5.2124.47 7.866-.094 2.6536-.282 6.5392-2.066 8.5294-1.972 2.2745-6.479 2.3693-9.297 1.4216-2.817-.9478-4.037-3.8857-5.258-6.5393s-1.596-5.6862-1.502-8.7189c0-1.0425.093-2.085.469-3.1275.47-1.4215 1.315-2.5588 2.348-3.6013 2.629-2.3693 6.667-3.1274 9.953-1.7059 3.287 1.3268 4.32 2.3693 4.883 5.8759z" fill="#FBBB9D"/><path d="M109.944 43.9248s-2.817 4.7385-3.85 9.0032c-.281.9478-5.54.853-9.2958-3.3169-2.1598-2.4641-2.1598-4.5491-2.1598-4.5491s6.1976-9.2875 6.2916-11.2777c.188-1.8955 3.756-3.7909 3.756-3.7909l5.258 13.9314z" fill="#FBBB9D"/><path d="M109.475 44.683s-3.756-.8529-5.54-2.6536c-2.348-2.464-3.381-7.2026-3.381-7.2026l-2.8168 5.402s1.7841 1.7059 4.3198 3.2222c3.286 1.9902 7.418 1.232 7.418 1.232z" fill="#EFA689"/><path d="M104.874 24.7811s2.817 3.696 6.385 2.464c0 0 3.005 4.6438 7.043 3.8856 4.413-.8529 2.159-11.0882 1.596-11.2777-.563-.1896-12.583-1.4216-12.583-1.4216l-9.6717 4.6438s-1.4085 5.2124-.0939 6.4444c0 0-3.2865 7.3922.6573 9.951 3.1923 1.9902 10.1413.853 6.6673-14.6895z" fill="#724D44"/><path d="M110.602 32.9314c-.188 0-.376-.1896-.376-.3791 0 0-.094-1.4216-1.033-1.5164-.845 0-1.22 1.3268-1.22 1.3268-.094.1896-.282.2844-.47.2844-.188-.0948-.282-.2844-.282-.4739 0-.0948.47-1.8954 1.972-1.8954 1.503 0 1.69 2.0849 1.69 2.1797.094.2843 0 .4739-.281.4739.094 0 0 0 0 0zM116.612 33.4052c-.188 0-.376-.1895-.376-.3791 0 0 0-1.1372-.751-1.232-.658-.0948-.939 1.1373-.939 1.1373 0 .1895-.188.379-.47.2843-.188 0-.282-.2843-.282-.4739.188-.7581.752-1.8954 1.785-1.8006 1.033.1895 1.314 1.3268 1.314 1.9902.094.2843 0 .4738-.281.4738z" fill="#CE8E78"/><path d="M112.855 34.7321c.564 1.0424 1.033 1.6111 1.127 2.0849.094.5686-.281 1.6111-2.066 1.9902-.187 0-.281-.0948-.094-.1895.188-.0948.376-.2843.564-.3791.282-.2843.563-.6634.563-1.1373 0-.4738-.281-.8529-.469-1.3268-.188-.3791-.376-.8529-.47-1.3268 0-.379.094-.6634.188-.9477.094-.0947.188-.0947.188.0948.094.2843.282.6634.469 1.1373z" fill="#EFA689"/><path d="M111.635 41.2712c-.752 0-1.409-.1895-2.066-.6634-.658-.4738-1.315-1.1372-1.69-1.8954-.094-.1896 0-.3791.187-.4739.188-.0947.376 0 .47.1896.375.6634.845 1.3268 1.502 1.6111.658.3791 1.409.5686 2.066.4738.188 0 .376.0948.376.2844 0 .1895-.094.379-.282.379-.282.0948-.376.0948-.563.0948z" fill="#E28C79"/><path d="M119.241 20.8954l-1.972-8.4346c-.376-1.6111-1.784-2.65361-3.381-2.65361h-5.352c-.845 0-1.69.18954-2.348.66341l-2.253 1.3268c.187 1.4216.845 8.9085 1.033 11.6569l14.273-2.5589z" fill="#E8E8E8"/><path d="M96.7982 18.2418l.2817 6.5393 7.8881-1.4216c-.188-2.7484-.845-10.1405-1.033-11.6569l-5.2587 3.1275c-1.2208.7582-1.8781 2.085-1.8781 3.4117z" fill="#D8D8D8"/><path d="M109.757 28.5719c-.47-.0948-.939 0-1.409.0948-.376.0948-.751.1895-1.127.2843-.281.0948-.657.1895-.845.4739v.0947c0 .0948.188.0948.282.0948 1.033-.0948 2.066-.1895 3.005-.3791.094 0 .281-.0948.375-.0948.094-.0947.188-.1895.188-.379 0-.0948-.282-.1896-.469-.1896z" fill="#724D44"/><path d="M97.0798 24.8758l23.3812-3.0327 4.038-1.8006c1.221-.5687 1.127-2.3693-.188-2.7484l-4.037-1.232c-3.381-1.0425-7.043-.6634-10.142 1.1372l-13.0522 7.6765z" fill="#B2ACAB"/><path d="M98.2067 58.5196c-.4696-.1895-1.8781-.3791-1.8781-.3791l-.7512 3.7909 1.9719.4738s1.5964.0948 1.972-1.4215c.4695-1.6111-.8451-2.2745-1.3146-2.4641zm-.4696 2.6536l-.6573-.0948.2817-1.5163s.3756.0948.5634.1895c.1878.0948.5635.2844.4696.853-.0939.4738-.6574.5686-.6574.5686zM102.526 59.3725c-1.127-.2843-2.254.4739-2.441 1.6112-.282 1.1372.469 2.2745 1.596 2.464 1.127.2843 2.254-.4738 2.441-1.6111.282-1.1372-.469-2.2745-1.596-2.4641zm-.657 2.7484c-.376-.0947-.658-.4738-.564-.9477.094-.3791.47-.6634.939-.5686.376.0948.658.4738.564.9477-.094.3791-.47.6634-.939.5686z" fill="#000200"/><path d="M95.4835 62.7843s1.1268 1.1373 3.6622 1.7059c2.5353.5686 3.7563-.0948 3.7563-.0948l-.282 1.4216s-2.16.7582-3.9438.2843c-1.8781-.4738-3.5683-1.9902-3.5683-1.9902l.3756-1.3268z" fill="#FC484C"/><path d="M77.6421 56.6242l5.0707 31.3693-4.9768-4.549-3.756-11.7517 3.6621-15.0686z" fill="#4455D3"/><path d="M91.8214 44.4935s-.6573 32.7908-4.789 49.8496l-3.9439-5.6862 8.7329-44.1634z" fill="#D9DEED"/><path d="M100.554 100.219l-1.2205 5.212-11.456-3.696-2.8171-6.7285 1.6903-.5686 13.8033 5.7811z" fill="#FB804A"/><path d="M155.299 148.458L65.341 81.2647c-1.2207 1.4216-2.4414 2.9379-3.6622 4.3595L150.228 151.68c1.409 1.042 2.629 1.611 5.447.568 1.314-.474 2.253-1.99-.376-3.79z" fill="#2C2E33"/><path d="M62.7118 76.6209l8.8268 12.7941 9.484-6.5392-8.0755-13.7418-10.2353 7.4869z" fill="#5A66FF"/><path d="M71.2568 154.807c-.2817 0-24.1327 0-39.0631-.095-7.8878-.094-14.7426-3.98-17.8414-10.235-5.07065-10.519 2.1598-22.65 6.8549-28.905 4.8829-6.445 6.3853-11.847 7.9816-17.1537 1.1269-3.7909 2.1598-7.3922 4.2256-11.0882 3.5683-6.2549 8.1695-9.951 13.6158-11.183 5.8219-1.2321 12.2072.5686 18.6864 5.3071l-3.4743 4.8334c-3.4744-2.5588-8.8268-5.402-13.9914-4.2647-3.7561.7581-7.0426 3.6013-9.7658 8.3398-1.7841 3.0327-2.6292 6.1602-3.6622 9.7613-1.5963 5.497-3.3804 11.752-8.9206 19.049-6.761 9.003-9.0146 17.059-6.2915 22.651 2.0659 4.264 6.8549 6.823 12.6768 6.918 14.8365.095 38.7814.095 38.9692.095v5.97z" fill="#BC9FAA"/><path d="M111.259 82.3072l1.221 27.5788s-2.911-1.517-6.01-2.37c-1.784-.473-7.2304-1.99-7.2304-1.99l8.0754-23.6926 3.944.4738z" fill="#5A66FF"/><path d="M114.358 63.5425s-1.972 14.7843-3.099 18.3856l.845 15.8268c-.094 0 4.507-18.8595 2.254-34.2124z" fill="#4455D3"/><path d="M113.325 105.431s1.784 7.772 2.817 9.288l12.677-3.601s-2.911-11.9415-3.099-13.9317c-.282-2.085-12.395 8.2447-12.395 8.2447z" fill="#5A66FF"/><path d="M67.8764 98.2287s-3.0987-1.0425-2.9109-1.8954c.1878-.8529 3.5682.2843 3.5682.2843l-.6573 1.6111zM109.287 110.359s3.193.569 3.287-.379c.187-1.232-4.414-1.99-4.414-1.99l1.127 2.369z" fill="#4455D3"/><path d="M69.191 160.653h37.091c6.761 0 10.236-8.245 5.54-13.173l-12.958-13.552c-4.0378-4.17-9.4841-6.634-15.306-6.729-11.6438-.284-21.5035 8.814-22.2547 20.565l-.2817 4.17c-.1878 4.833 3.4743 8.719 8.1694 8.719z" fill="#936A79"/><path d="M79.9898 163.781c7.1568 0 12.9584-5.856 12.9584-13.079 0-7.223-5.8016-13.078-12.9584-13.078-7.1567 0-12.9584 5.855-12.9584 13.078 0 7.223 5.8017 13.079 12.9584 13.079z" fill="#724451"/><path d="M84.5909 90.8366c0 .0948 2.1598 2.4641 4.2256 4.7386.3756.4738.7512 1.0425.939 1.6111.4695 1.0425.8451 1.9902.939 2.9377-3.4743-2.3691-4.6011-3.5063-4.6011-3.5063l-1.5025-5.7811zM123.654 133.01l-.282-.664c.188.095-.187-.284-.187-.473-.094-.569-.094-1.138-.188-1.801-.094-.853-.188-1.706-.376-2.464-.282-.758-.657-1.611-1.408-2.085-.376-.284-.939-.474-1.409-.379-.188-.285-.469-.569-.657-.758-.47-.285-1.033-.474-1.503-.379-.563.189-1.596 7.297 2.16 7.676.939 1.042 2.442 1.516 3.85 1.327z" fill="#EFA689"/><path d="M124.875 112.255c.657 1.516 2.817 5.212 3.286 6.255.752 1.706 1.878 3.412 2.16 5.307l.845 6.634s-5.07-3.791-7.136-5.307c-1.033.474-1.503 1.99.469 4.549 1.597 2.085 2.16 5.307 1.033 5.591-1.033.758-2.16-2.179-4.319-4.359-3.663-7.013-2.817-12.794-3.099-16.775 2.066-.568 3.85-1.137 6.761-1.895zM72.9471 88.4673c.8452-.6634 4.9768-3.317 6.3854-4.3595.8451 1.0425 1.6902 1.8955 2.5353 2.938 3.4744 4.1699 4.6951 7.2973 6.3853 12.6045.5634 1.8007 1.4086 7.8657 1.3147 8.8137-1.4086 1.232-3.4744-2.18-3.7561-3.886-.2817-1.611-.6573-5.3068-1.0329-6.1597.5634 1.4216 2.2536 7.4867.1878 7.3917-1.3147-.094-2.1598-1.99-2.2537-3.317 0 .38-2.9109 1.706-3.5682-1.516.1878.758-1.8781 1.422-3.2866-2.0848-.8451-2.8432-2.0658-8.719-2.911-10.4249z" fill="#FBBB9D"/></g></g><defs><clipPath id="clip0"><path fill="#fff" d="M0 0h220v160H0z"/></clipPath><clipPath id="clip1"><path fill="#fff" transform="translate(9 -10)" d="M0 0h174v174H0z"/></clipPath></defs></svg>
