<svg viewBox="0 0 220 160" fill="none" xmlns="http://www.w3.org/2000/svg"><g clip-path="url(#clip0)"><path d="M34.4323 125.13c-.0764.772-.1529 1.543-.2293 2.322-2.0774-16.409-2.1817-32.9938-2.2859-49.5364 36.7202-4.5881 74.2259-7.3662 111.2239-7.8292 1.911 15.1324 2.939 30.3766 3.071 45.6356-37.589.842-75.1776 1.684-112.7594 2.526M88.057 72.8575c.4516 14.943.4725 29.9065.0556 44.8495M39.6572 83.9069v6.7349M42.5615 83.3737c-.0417 2.7781.0556 5.5632.2918 8.3274" stroke="#DDD" stroke-miterlimit="10"/><path d="M36.5098 86.0466c1.202-1.7398 2.1469-3.648 2.807-5.6615.2153.5612.5072 1.0944.8754 1.5715.3196-1.1085 2.0983-2.0977 3.0641-2.722.528.7155.7504 1.6556.5975 2.5396M36.5028 92.9568c2.5082-.5472 5.0234-1.0383 7.5455-1.4872.8269-.1474 1.6884-.2807 2.4874-.0281M50.0376 80.5394c-.1807 1.4031-.0487 2.8483.389 4.1883.146.4419.3266.8909.6532 1.2206.7087.7226 1.8551.7016 2.8625.6244.2988-.021.6254-.0561.8477-.2666.2015-.1964.2571-.4981.3057-.7787.2432-1.5434.4933-3.0868.7365-4.6302M52.8306 87.9899c.1745 1.8801.2304 3.7743.1815 5.6685-.0628-.7086-.1187-1.4171-.1815-2.1257" stroke="#DDD" stroke-miterlimit="10"/><path d="M49.6624 80.9183c1.1811.2806 2.4318.2736 3.6129-.0351.6531-.1684 1.473-.3789 1.9038.1473M49.8499 93.8548c2.3831-1.0312 4.9469-1.6275 7.5316-1.7608M66.3306 88.516c.2779 5.3809 1.4382 10.7197 3.4184 15.729 3.9742-2.547 8.6641-3.641 13.2568-4.6936-1.744-3.7252-3.8562-7.2751-6.3019-10.5794-.2084-.2806-.4238-.5612-.7295-.7226-.542-.2806-1.202-.0912-1.7787.0982-2.8487.9471-5.6974 1.8872-8.546 2.8343" stroke="#DDD" stroke-miterlimit="10"/><path d="M30.3746 99.4882c38.763.7018 77.5464.1404 116.2754-1.6907M104.85 106.377c4.739.463 9.484.919 14.223 1.383 3.46-7.64 7.539-14.9996 12.18-21.973-.348.5262-9.595-1.2908-10.86-1.2978-2.439-.0071-3.835.463-5.128 2.6308-3.745 6.3139-6.086 13.168-10.415 19.257z" stroke="#DDD" stroke-width="1.1981" stroke-miterlimit="10"/><path d="M69.6656 126.07c.542 1.712 2.2582 2.96 4.0299 2.946 1.7787-.014 3.474-1.297 3.9882-3.009M144.371 122.366c12.902-2.287 26.041-3.213 39.131-2.757.319.014.715-.021.847-.316s-.479-.554-.472-.232M159.017 122.359c-1.007.933-1.077 2.588-.486 3.837.59 1.249 1.695 2.161 2.814 2.954 2.285 1.62 4.787 2.925 7.413 3.872 1.098.393 2.244.737 3.405.625.972-.092 1.889-.498 2.786-.898 1.292-.576 2.584-1.158 3.877-1.733 1.737-.779 3.731-1.908 3.849-3.824M160.302 59.8718c3.488.0632 6.983.1544 10.471.2807M143.106 80.9183c12.319-.1894 24.638-.3718 36.957-.5612M196.557 82.7353c.883 1.7539 2.126 3.3253 3.627 4.5811.785.6594 1.668 1.2417 2.668 1.4452 1.001.2034-2.731-.0421-2.064-.8278M123.777 44.3466c-.084-.877-.195-1.9082-.952-2.3432-.771-.442-1.807.0631-2.237.8489-.431.7857-.403 1.7328-.313 2.6238.139 1.375.396 2.743.771 4.076-1.028-1.4382-1.264-3.2833-1.674-5.0091-.41-1.7258-1.147-3.5568-2.71-4.3777-1.48.9752-1.82 3.0377-1.577 4.8056.236 1.7679.91 3.4727.917 5.2546-.292-3.5708-1.751-7.0295-4.106-9.7094-1.522 3.0588-.105 6.7068 1.306 9.8147-.737-2.1047-2.175-3.9497-4.023-5.1704-.424.1683-.438.7576-.347 1.2066.625 3.2342 2.64 6.0404 4.974 8.3484 2.335 2.3081 5.024 4.2163 7.449 6.4192.312.2876 4.592-6.0543 4.703-7.24.292-3.0447-1.896-6.4402-2.181-9.548zM148.539 64.1934c.007.4069.014.8138.021 1.2136 0 .1123.063.2666.168.2315M150.936 64.3828c-.007.3508.077.7015.237 1.0172M123.874 60.6576c-.201.7997.097 1.6556.605 2.301.507.6455 1.202 1.1085 1.889 1.5434 5.698 3.599 14.126 5.5072 20.782 6.4823M151.465 65.7719c1.132-.5753 2.577-.4631 3.606.2946.472.3438.875.8629.882 1.4522.007.2175-.049.435-.021.6525.028.2174.174.4419.389.463M162.922 70.6266c.681-1.1436 1.869-1.9153 3.12-2.3432 1.25-.428 2.584-.5472 3.904-.6454-.917.8909-1.834 1.7819-2.834 2.5747-.591.47-1.272.926-2.022.8769 1.5-1.2698 3.501-1.9363 5.454-1.81-.82 1.0804-2.196 1.5364-3.488 1.9293.424-.0702.848-.0913 1.278-.0772-.868.9892-1.903 1.824-3.05 2.4624M172.816 69.6584c-3.036 2.3572-5.996 5.1845-7.073 8.9027-.042.1403-.077.3016-.007.4349.125.2386.465.2035.722.1333.973-.2736 1.925-.6103 2.856-.9892.632-.2595 1.265-.5542 1.806-.9681.793-.6103 1.376-1.4522 1.876-2.3221.48-.8349.897-1.6978 1.251-2.5887.104-.2596.202-.5402.125-.8068-.111-.3789-.521-.5753-.903-.6805-1.515-.428-3.189-.2245-4.558.5472" stroke="#DDD" stroke-miterlimit="10"/><path d="M171.259 72.9557c-1.083.8208-2.001 1.8732-2.661 3.0658-.111.2034-.208.4771-.048.6454.549-.0491 1.042-.3367 1.494-.6454 1.125-.7787 2.16-1.8661 2.355-3.2271-.382-.1544-.82-.0141-1.202.1473-.66.2806-1.306.6103-1.911.9962M156.62 69.2726c.806 3.7743 1.348 7.6118 1.633 11.4633-.063-.1754-.125-.3578-.181-.5332M147.052 70.7739c.167 2.6238.334 5.2406.501 7.8644.028.477.09 1.0172.458 1.3189" stroke="#DDD" stroke-miterlimit="10"/><path d="M160.976 71.1177c-1.216 1.4381-2.431 2.8833-3.654 4.3215-.077.0912-.16.2385-.077.3297M164.124 74.0852c-.945.6454-1.418 1.7819-2.119 2.701-.702.926-1.675 1.6486-2.759 2.0555" stroke="#DDD" stroke-miterlimit="10"/><path d="M135.748 49.4679s27.104 2.6308 34.615 6.3139c0 0 11.576 17.1458 15.321 29.0301.069.2174-51.541.7787-51.541.7787l1.605-36.1227z" fill="#FFB031"/><path d="M145.878 58.7003l21.317 1.2066L179 84.419l-35.255.1684 2.133-25.8871z" fill="#F9DCDC"/><path d="M149.081 120.198s-4.196 23.495 12.771 24.196c14.368.597 29.918-25.262 29.918-25.262l-42.689 1.066zM32.9246 123.025s-3.3211 25.081 14.167 27.382c17.4881 2.301 31.8427-27.557 32.0164-28.792.1737-1.235-46.1834 1.41-46.1834 1.41z" fill="#3A2D29"/><path d="M140.139 125.824H18.2643c-3.1058 0-5.621-2.539-5.621-5.675v-14.326c0-2.792 2.2442-5.058 5.0095-5.058H140.16s-.625 25.67-.021 25.059z" fill="#FFB031"/><path d="M161.789 83.8157s5.35-13.0699 9.095-11.8983c3.738 1.1786 3.064 12.4455 3.064 12.4455l-4.016.0491s1.425-7.6259-.146-8.3625c-1.57-.7366-4.613 7.8153-4.613 7.8153l-3.384-.0491z" fill="#3A2D29"/><path d="M162.422 78.7154c.027-.1473 1.361-3.3393 1.882-3.9497.522-.6103 4.19-2.6378 4.538-2.2239-1.974 1.7679-3.426 4.4268-3.426 4.4268s.077.6875 1.049.5542c1.022-.1333 1.522-1.0383 2.189-.7787-.021.8348-.987 2.1537-2.21 2.7641-1.215.6173-3.272 1.6977-3.272 1.6065 0-.0912-.75-2.3993-.75-2.3993z" fill="#FBBB9D"/><path d="M79.0802 34.4337l1.4174 33.4217 54.6874-1.0523 1.432-33.9058-57.5368 1.5364z" fill="#442D2D"/><path d="M143.579 66.291l.166 18.2964 22.213-.0632-12.673-20.2326-9.706 1.9994z" fill="#5A66FF"/><path d="M153.285 64.2916s7.427-.4981 11.652 5.3458c2.675 3.6971 6.01 14.8237 6.01 14.8237l-16.794.1052-.868-20.2747z" fill="#5A66FF"/><path d="M21.8216 70.9493l-.3613 30.0407 118.6927-.225.605-34.0601-116.8242 2.0976c-1.1603.0211-2.0983.9752-2.1122 2.1468z" fill="#D6A27F"/><path d="M80.1015 12.1455c1.274 0 2.3068-1.0428 2.3068-2.32912 0-1.28635-1.0328-2.32914-2.3068-2.32914-1.2739 0-2.3067 1.04279-2.3067 2.32914 0 1.28632 1.0328 2.32912 2.3067 2.32912z" fill="#FFE6E6"/><path d="M13.0255 107.002c.3682 1.361-.0417 3.129-.2293 4.518-.007.091-.0139.189-.0139.28 0 .05-.0208.092-.0347.134 4.8288-.176 127.2384-1.459 127.2384-1.459l-.396-5.213-126.6271 1.6c.0278.042.0487.084.0626.14zM12.6086 116.143l126.7174-.463v4.679l-126.6826-.21-.0348-4.006z" fill="#E2982B"/><path d="M154.084 46.7318c-.674 1.796-2.258 3.2131-4.106 3.6761-.487.1263-1.015.1824-1.48-.014-.445.7366-1.327 1.1786-2.175 1.1014.028-.1543.056-.3087.083-.463" stroke="#DDD" stroke-miterlimit="10"/><path d="M153.952 44.5079c-1.529-.2105-3.148-.3508-4.565.2666-1.417.6174-2.529 2.2309-2.07 3.7252-.786-.456-1.842-.1052-2.432.5823-.591.6875-.827 1.6136-.952 2.5186-.16 1.1716-.174 2.3642-.049 3.5358.091.7927.438 1.7679 1.223 1.81" stroke="#DDD" stroke-miterlimit="10"/><path d="M144.899 42.0174c2.265 1.354 4.988 1.6486 7.427 2.6378 2.196.891 4.183 2.3642 6.51 2.8062-.139-.1824-.271-.3648-.41-.5402M156.599 43.175c-.41 1.1646-.98 2.273-1.688 3.2832M150.005 51.5585c-.486.3648-.868.8839-1.07 1.4592-.048.1403-.09.3017-.027.442.125.2806.521.2525.813.1754M152.764 52.1969c-.459.5262-.778 1.1716-.931 1.8521-.042.1894-.007.463.18.47M150.797 55.7537c-.611.3999-1.188.8559-1.716 1.361-.146.1404-.305.3438-.222.5332.618.1193 1.244.1824 1.869.1824M149.519 59.0651h-.215M148.97 59.3878c-.354.0491-.722.2525-.82.5963-.097.3367.098.7015.382.898.285.1964.647.2455.994.2455.653.007 3.801-.926 3.092-2.0976-.327-.5402-1.167-.0632-1.529.0771-.736.2807-1.361.1754-2.119.2807z" stroke="#DDD" stroke-miterlimit="10"/><path d="M77.4961 34.3495l.271 7.4926 60.7399-1.5505.465-7.5416-61.4759 1.5995z" fill="#442D2D"/><path d="M50.4197 119.812s-5.5029 15.981 2.2164 15.981c7.7192 0 9.5535-14.129 9.5535-14.129l-11.7699-1.852z" fill="#6D5A55"/><path d="M156.703 67.4626c0 .1543.841 16.339.924 17.1248.153 0 3.085-.0351 3.085-.0351l-4.009-17.0897z" fill="#4B5DE0"/><path d="M160.768 122.527c-.278.091-1.48 9.534 4.169 9.906 5.648.372 10.463-9.906 10.463-9.906h-14.632z" fill="#6D5A55"/><path d="M162.005 76.7862l1.299 4.3426-1.515 3.3885-1.292-2.1748.542-5.0161.966-.5402z" fill="#5A66FF"/><path d="M139.465 85.5345s61.789-3.2763 64.596-.1614c2.807 3.1149 1.167 17.8189-.466 21.5029-1.639 3.676-4.842 3.851-4.842 3.851s1.702 10.895-4.433 13.189c-2.363 2.056-54.98 1.915-54.98 1.915l.125-40.2965z" fill="#FFB031"/><path d="M139.569 127.34s5.337-30.8123 31.711-32.2434c26.153-1.4171 22.137 29.5214 22.137 29.5214l-53.848 2.722z" fill="#E2982B"/><path d="M204.513 103.754l-15.091-.084 2.188 9.484 5.433-1.466c0-.007 7.727-2.09 7.47-7.934z" fill="#E2982B"/><path d="M194.702 84.2506c-.389 0-.605 13.5259 3.773 19.5034l6.031-.021s4.148-13.3929.083-18.3529c-3.613-3.9707-9.887-1.1295-9.887-1.1295z" fill="#F2CDC2"/><path d="M58.3056 103.55c25.117-.645 24.9016 19.812 23.4217 25.586l-55.8759-.295s4.3773-24.568 32.4542-25.291z" fill="#E2982B"/><path d="M21.509 100.709s-2.2651 12.116-8.8796 12.915l.0278-8.271s-.2085-4.363 4.7872-4.679c3.1196-.19 4.0646.035 4.0646.035z" fill="#F2CDC2"/><path d="M52.4624 68.2623l-.0278 32.7767h3.3142l-.3057-32.7767h-2.9807zM80.9492 67.7923l.4447 33.0847 2.8834-.084-.1806-33.134-3.1475.1333zM110.416 67.2662l.396 33.6108 2.605-.203-1.049-33.4148-1.952.007z" fill="#B7805C"/><path d="M21.6549 84.2646v2.7361l118.6511.014.118-3.1991-118.7691.449zM26.1156 79.5292l-.1042 1.5574 8.0388.0491.1529-1.7959-8.0875.1894z" fill="#B7805C"/><path d="M28.1791 72.2331l-1.7857 2.8693 1.3063-.0982-.0973 4.6723 1.2993-.0491v-4.6232l1.202.2456-1.9246-3.0167zM32.6605 71.9455l-1.8829 3.2552 1.1603-.1473-.3891 4.6722 1.5425-.0491.0972-4.6723 1.0145.1474-1.5425-3.2061zM35.7524 75.7759s.9172-3.5007 3.8076-3.5498c2.8903-.0491 3.3697 3.6972 3.3697 3.6972s-1.063-.9261-2.6472-.0491c0 0-.9171-.9752-2.6055-.1965.007 0-.7156-.8278-1.9246.0982z" fill="#B7805C"/><path d="M39.2195 73.2784v-1.8942h.6878l.0695 1.803-.7573.0912zM39.0319 74.9972s-1.202 5.6475.7226 5.6896c1.9246.0491 1.8759-1.9924 1.8759-1.9924l-1.202-.1474s-.0972 1.0734-.5767 1.0243c-.4794-.0491-.1945-4.3285-.1945-4.3285l-.6253-.2456zM79.3998 41.7508l.0625 3.0448 56.6957-1.1366.16-3.2621-56.9182 1.3539zM79.6499 48.2542l.1181 2.9675 56.147-1.3189.118-3.4165-56.3831 1.7679zM79.9557 54.8908l.1876 3.178 55.4657-1.4031.202-3.7111-55.8553 1.9362zM80.2683 61.8011l.0556 3.185 55.0001-1.3189.139-3.5849-55.1947 1.7188z" fill="#B7805C"/><path d="M108.894 62.3413c-.146-.1544-1.786-4.9039-2.23-6.8401-.195-.8349-.73-2.9465-1.369-5.423-.681-2.6448-1.334-4.1251-1.535-5.6264-.063-.463-.556-.7226-.966-.5051-.876.449-2.022 1.6135-1.828 4.5951.313 4.7214 1.439 7.3522.139 7.2119-.59-.0631-4.3838.2456-8.0246.0842-1.4729-.0631-3.0293.1333-4.4259.2245-2.7027.1684-3.738.1333-3.8422 1.5294-.1112 1.4662 1.3896 1.6135 4.0159 1.8872 2.9391.3086 6.024.4489 6.024.4489s-4.7038.2736-4.7525 1.789c-.0486 1.5153 2.7028 1.6136 2.7028 1.6136s-1.7856.4209-1.6189 1.5363c.1668 1.1225 2.5916.877 2.5916.877s-1.9802.7577-1.063 1.9503c.9171 1.1926 4.3425.1964 6.6909-.0632 1.6749-.1894 3.1609.7016 3.1609.7016l6.33-5.9912z" fill="#FBBB9D"/><path d="M97.7564 67.8555s.8199-.3648.9449-1.5434c.132-1.1786-1.8204-1.0454-1.8204-1.0454s1.3132-.4419 1.4035-1.4942c.0904-1.0454-1.598-1.2558-1.598-1.2558s1.0908-.3929 1.1186-1.333c.0278-.9471-1.3826-1.1856-1.3826-1.1856s3.6196-2.3572 4.4256 2.9255c.278 1.81.521 4.3636-3.0916 4.9319z" fill="#EFA689"/><path d="M104.329 47.0054s-.743.47-1.209-.2034c-.465-.6735-.535-2.701-.535-2.701s.188-.3157.779-.1894c.694.1473.965 3.0938.965 3.0938z" fill="#FFCCB8"/><path d="M108.915 62.187l-9.5744 9.092s11.8534 17.2581 25.1864 16.9143c7.976-.2034 13.333-4.8336 19.496-11.5895l1.473-11.5405s-6.267.919-9.234 3.9146c-11.79 11.9053-13.562 7.247-27.347-6.7909z" fill="#5A66FF"/><path d="M141.348 45.7637c-.173 0-6.19 7.2259-.701 10.5934 4.905 3.0096 4.787-10.3689 4.787-10.3689l-4.086-.2245z" fill="#684F4A"/><path d="M144.683 44.5781s-8.136 14.9009-1.16 17.4826c6.976 2.5817 11.388-11.3862 11.624-13.6101.236-2.2239-10.464-3.8725-10.464-3.8725z" fill="#FBBB9D"/><path d="M152.59 53.8525l.695 10.4461s-1.626 3.8094-3.995 4.1461c-2.884.4069-3.794-2.3852-3.794-2.3852l-1.16-5.5142 8.254-6.6928z" fill="#FBBB9D"/><path d="M144.635 62.2711s5.843.2035 7.948-6.7208l.41 4.4548c-.007.007-2.724 4.6724-8.358 2.266z" fill="#EFA689"/><path d="M142.627 49.089c-3.773-4.3425-2.099-8.18.66-9.0429 2.855-.884 2.675 1.6837 9.831 1.6837 6.365 0 6.712 5.893 4.169 9.8357-1.362 2.1116.188 2.736.306 5.9351.146 3.8304-3.044 4.7495-4.892 4.2023-1.271-.3719-2.223-1.4452-1.799-4.1743.278-1.7959 1.688-3.6901 1.688-3.6901-3.245-2.287-2.939-7.9064-2.939-7.9064l-7.024 3.1569z" fill="#54403B"/><path d="M81.7 48.3173l-7.1009-7.1698c-1.6467-1.6627-3.877-2.5957-6.1976-2.5957H49.1972c-2.3276 0-4.551.933-6.1977 2.5957l-7.1008 7.1698c-3.0433 3.0728-3.4254 7.9135-.9102 11.4353l3.6824 5.1493c1.6467 2.3081 4.2939 3.6691 7.1078 3.6691H71.8199c2.8139 0 5.4611-1.368 7.1078-3.6691l3.6824-5.1493c2.5222-3.5148 2.1331-8.3625-.9101-11.4353z" fill="#3A8989"/><path d="M44.7852 45.0902l-.1667 17.637c-.007.94.7434 1.7117 1.6744 1.7187l22.7409.1754c.931.0071 1.6953-.7506 1.7022-1.6977l.0834-17.6369c.007-.9401-.7434-1.7048-1.6745-1.7118l-22.6574-.1754c-.938-.007-1.6953.7506-1.7023 1.6907z" fill="#233C3F"/><path d="M51.3302 58.4056s.8616-7.5136 6.0934-7.6188c5.2319-.1053 7.0106-.1614 8.0875.2174 1.0769.3789 3.613 4.1392 3.4532 7.3453-.1668 3.2131-17.6341.0561-17.6341.0561z" fill="#C6C6C6"/><path d="M58.1531 53.5509c.0209 0 .0348.014.0556.014-.1945-.2596-.4863-.4349-.8268-.442-.5975-.007-1.0908.4771-1.1047 1.0874-.007.5893.4377 1.0664 1.0074 1.1085-.1459-.1894-.2431-.4209-.2362-.6805.007-.6104.5072-1.0944 1.1047-1.0874z" fill="#E4E7ED"/><path d="M58.445 54.2454c.0069-.2595-.0903-.491-.2362-.6804-.0209 0-.0348-.0141-.0556-.0141-.5976-.007-1.0978.4771-1.1048 1.0874-.0069.2596.0904.4911.2363.6805.0208 0 .0347.014.0556.014.6044.0141 1.0978-.477 1.1047-1.0874z" fill="#2C2E33"/><path d="M64.4758 53.6421c.0208 0 .0347.014.0556.014-.1946-.2596-.4864-.435-.8268-.442-.5976-.007-1.0909.4771-1.1048 1.0874-.0069.5893.4377 1.0664 1.0075 1.1085-.1459-.1895-.2432-.421-.2363-.6805.0139-.6104.5073-1.0944 1.1048-1.0874z" fill="#E4E7ED"/><path d="M64.7746 54.3366c.0069-.2596-.0903-.4911-.2362-.6805-.0209 0-.0348-.014-.0556-.014-.5976-.007-1.0978.477-1.1048 1.0874-.0069.2595.0904.491.2363.6805.0208 0 .0347.014.0556.014.5975.014 1.0908-.4771 1.1047-1.0874zM59.3622 55.7046c-.1182 0-.2154-.0841-.2363-.2104-.0208-.1333.0695-.2596.2015-.2806.7851-.1263.8338-.9261.8338-.9612.0069-.1333.1181-.2315.2432-.2315.132 0 .2362.1123.2362.2456 0 .0912.0278.905.7782.933.132.007.2362.1193.2292.2526-.0069.1333-.1111.2385-.2431.2385h-.007c-.528-.021-.8476-.2876-1.0352-.6103-.1876.2876-.5003.5472-.9728.6243-.0069-.007-.0208 0-.0277 0z" fill="#2C2E33"/><path d="M54.9154 51.9444s.5975-4.2865 1.5425-4.4619c.9449-.1754 2.7027 3.5077 2.7027 3.5077l-4.2452.9542zM61.7313 51.1656s1.3271-4.069 2.5708-3.7252c1.2437.3437 1.2437 4.2864 1.2437 4.2864l-3.8145-.5612z" fill="#C6C6C6"/><path d="M56.0618 47.7631s1.202 2.6519 1.1186 3.2131c-.0834.5612-2.1747 1.2137-2.1747.4771-.007-.7297.4377-3.122 1.0561-3.6902zM64.4828 47.5667s-.7782 2.8483-.3613 3.2692c.4168.421 1.3896.1684 1.3896.1684s.2015-2.9535-1.0283-3.4376z" fill="#9B9B9B"/><path d="M51.5179 57.7111c-.1112.035-4.8775 3.9918-4.5579 6.7909.2292-.0771 22.0738.1193 22.0738.1193s1.5563.0631 1.7023-1.6977c.1389-1.6487-1.7787-4.5671-1.7787-4.5671l-17.4395-.6454z" fill="#C6C6C6"/><path d="M53.7412 64.495c.0764-.3507 2.0288-4.4057 5.7182-3.0236 2.3762.8909 2.4666 6.0964.3822 6.37-2.0914.2666-2.2998-3.3113-2.2998-3.3113l-3.7936-.014" fill="#9B9B9B"/><path d="M60.5085 64.4249s.2293-3.2833 2.7167-3.0588c2.4874.2316 3.738 5.402 1.5842 6.0263-2.1539.6314-3.5922-2.7711-3.5922-2.7711" fill="#9B9B9B"/><path d="M58.9799 67.7151c.0139.007.0278.007.0348.0141.1806.1192.396.1753.6044.1753h.0348c.1876-1.0453-.3196-2.1397-.3405-2.1818-.0833-.1753-.2848-.2455-.4655-.1683-.1737.0842-.2501.2946-.1667.47.0139.007.4168.8839.2987 1.6907zM60.0708 67.6029c-.0139.0631-.0069.1263.0139.1824.0973-.0421.1945-.0772.2918-.1263.007-.007.0139-.014.0209-.021.1389-.1123.2709-.2526.4168-.3859.0626-.9471-.3057-1.6697-.3265-1.7047-.0903-.1754-.2988-.2386-.4725-.1474-.1667.0912-.2362.3017-.1459.4771.0069.007.4169.7997.2015 1.7258zM63.7324 67.3854c.2293.0631.4516.0702.6878.0912.1112-1.0243-.667-2.1467-.7017-2.1958-.1112-.1614-.3266-.1965-.4864-.0772-.1528.1122-.1945.3297-.0764.4911.1876.2666.6392 1.0663.5767 1.6907zM64.8649 67.2942c-.007.0421 0 .0842.0069.1193.007-.0071.0139-.0141.0209-.0211.125-.0912.257-.1543.396-.2245.0278-.021.0486-.0421.0764-.0631.0765-.0702.1529-.1403.2154-.2175-.0208-.9751-.4863-1.7469-.5141-1.7819-.1043-.1614-.3127-.2105-.4794-.1123-.1599.1052-.2085.3227-.1112.4841.0069.014.528.8699.3891 1.817z" fill="#2C2E33"/><path d="M47.8632 61.6257s.8476-11.2599-6.7882-10.0532c-7.6359 1.2066-5.9267 15.0131-1.7995 15.2446 4.1271.2315 2.5916-12.1578 2.5916-12.1578s.792 10.432 5.0929 9.8427c.1042-1.6697.9032-2.8763.9032-2.8763z" fill="#C6C6C6"/><path d="M51.3101 43.4696l-.1536 21.0535M66.324 43.624l.1187 20.9412M47.7867 58.9318h23.0049M44.7643 51.2498l26.2565-.1263" stroke="#E5E5E5" stroke-width="2" stroke-miterlimit="10"/><path d="M35.7181 59.3316l6.5381.0702s.8685 7.4083-2.9807 7.4083-3.5574-7.4785-3.5574-7.4785z" fill="#9B9B9B"/><path d="M53.0741 38.5869s-.3891-11.0494 5.9683-10.7478c6.3575.3017 5.3986 10.7688 5.3986 10.7688l-3.7866-.021s.9379-7.689-1.4105-7.7872c-2.3484-.0982-2.8417 7.7661-2.8417 7.7661l-3.3281.0211z" fill="#233C3F"/><path d="M145.316 53.7683c-.271.3929-.626.7297-.8 1.1787-.222.5542-.111 1.2206.264 1.6837.383.456 1.015.6805 1.592.5612-.605-.1824-1.036-.8278-.987-1.4662.028-.3087.153-.5963.257-.884.139-.3788.236-.7717.257-1.1786.007-.1824.021-1.0172-.236-1.0172-.056.4139-.083.7436-.347 1.1224z" fill="#DD9A83"/><path d="M149.408 57.3813s-.375 1.9223-2.877 1.9714l2.877-1.9714z" fill="#D37959"/><path d="M157.092 51.4673c-.145.0351-16.675-.0702-16.675-.0702s-.347 3.9287 2.161 4.0339c2.89.1123 3.363-3.5147 3.363-3.5147s.035 3.662 2.737 3.7603c2.502.0912 2.828-3.0798 2.828-3.0798l4.815-.1965.771-.933z" fill="#302735"/><path d="M149.352 50.3378c.181.1263.098.4209-.125.435-.688.0561-2.633.1753-2.647-.1824-.014-.435.375-.5893 1.23-.5753.57.014 1.244.1122 1.542.3227zM144.655 50.7447c-.521.0421-2.181.1753-2.021-.3649.159-.5402 2.556-.5542 2.605-.035.021.2245-.41.3858-.584.3999z" fill="#56413B"/><path d="M154.925 51.7479s.305-.9752 1.709-.4841c1.403.4841.528 4.6513-1.626 4.2514-1.098-.9331-.083-3.7673-.083-3.7673z" fill="#FBBB9D"/><path d="M99.4748 21.3914l-16.6849-.1066.3429 2.9507v.1422c.2285.8176 3.5426 1.4575 7.9996 1.4575 4.6093 0 7.8853-.6399 8.0377-1.5286-.0381-.1067.3047-2.9152.3047-2.9152z" fill="#FFB031"/><path d="M91.1324 22.8016c4.6074 0 8.3424-.6791 8.3424-1.5168 0-.8378-3.735-1.5169-8.3424-1.5169s-8.3425.6791-8.3425 1.5169c0 .8377 3.7351 1.5168 8.3425 1.5168z" fill="#FFB031"/><path d="M97.9241 22.0432c.5282-.2322.7924-.4644.7924-.6965 0-.8823-3.3959-1.5788-7.5841-1.5788s-7.5841.6965-7.5841 1.5788c0 .2321.3019.5107.7924.6965 1.2451-.5108 3.8109-.8358 6.754-.8358 2.943 0 5.5842.325 6.8294.8358z" fill="#C67A2E"/><path d="M97.9581 22.0414c-1.2584-.4624-3.8514-.7566-6.8257-.7566-2.9743 0-5.5673.3363-6.8256.7566 1.2583.4624 3.8513.7567 6.8256.7567 2.9743.042 5.5673-.2943 6.8257-.7567z" fill="#484940"/><path d="M91.1323 34.9361c2.932 0 5.3089-.5093 5.3089-1.1376s-2.3769-1.1376-5.3089-1.1376c-2.932 0-5.3088.5093-5.3088 1.1376s2.3768 1.1376 5.3088 1.1376z" fill="#FFB031"/><path d="M96.5353 34.1777H85.8065L84.3068 23.56h13.6513l-1.4228 10.6177z" fill="#FFB031"/><path d="M91.1324 25.7268c-2.8969 0-5.3176-.2528-6.8256-.65l.1587.9029c1.508.3611 3.8494.6139 6.6669.6139 2.8573 0 5.1986-.2167 6.6669-.6139l.1588-.9029c-1.508.3972-3.8891.65-6.8257.65z" fill="#D37E29"/><path d="M89.2664 21.2468s-1.5989-6.9216 1.5245-11.143c.1859-.26618.5949-.26618.7808.0381 2.7516 4.1453 1.6361 8.9371 1.4873 11.1429" fill="#686D39"/><path d="M92.3459 21.2848c-.038-5.7479-2.6924-8.7017-2.7303-8.7417l.1138-.3592c.0379.0399 2.9198 3.2332 2.9198 9.1009h-.3033z" fill="#A3A845"/><path d="M91.402 14.4592l-.2697-.1282c.3371-1.6664 1.3483-2.8627 1.382-2.9055l.1348.3846c-.0337-.0427-.9438 1.0682-1.2471 2.6491zM91.1005 21.2848l-.3365-.0375c.3365-4.3819-1.9068-5.6927-1.9068-5.6927l.0374-.3371c.1121.0375 2.5424 1.4981 2.2059 6.0673z" fill="#A3A845"/></g><defs><clipPath id="clip0"><path fill="#fff" d="M0 0h220v160H0z"/></clipPath></defs></svg>
