<svg width="220" height="159" fill="none" xmlns="http://www.w3.org/2000/svg"><g clip-path="url(#clip0)"><g clip-path="url(#clip1)"><path d="M218.043 152.206s-158.54-.13-185.653 0c6.88 19.654 35.125 57.44 99.18 54.42 76.087-3.592 86.473-54.42 86.473-54.42z" fill="#FFD150"/><path d="M127.371 156.343s5.107-18.634 19.761-24.19l6.024 16.859-21.697 9.676-4.088-2.345z" fill="#EFEFEF"/><path d="M145.838 123.646s-.968 2.259-2.425 4.518c-1.457 2.259-4.49 5.773-3.642 7.781.849 2.007 2.674.372 2.674.372s-1.097 3.133.368 3.384c1.457.251 3.034-1.627 3.034-1.627s-1.457 3.513.24 3.383c1.696-.121 3.642-2.76 3.642-2.76s-6.804 13.795-4.619 14.427c2.185.623 9.477-16.054 9.477-16.054 0 .372 4.979-2.51 4.979-4.89v-5.522l-13.728-3.012z" fill="#FBBB9D"/><path d="M211.71 40.883c.788.268 13.814 19.187 14.696 46.803l-26.187 6.794-10.618 1.506s-.625-9.027-4.37-13.328-4.37-9.46-4.37-9.46l-20.19 53.961-16.238-3.228 38.45-82.555" fill="#5A66FF"/><path d="M189.602 95.995l-22.46 56.401 50.901-.19s13.968-31.217 8.227-65.974l-36.668 9.763z" fill="#B8B5EA"/><path d="M165.761 78.15c-17.627-.425-25.493-13.787-21.766-25.211 2.503-7.668 11.355-10.636 15.502-13.691 6.907-5.09 2.511-17.266 2.511-17.266l.583-.416 22.486 18.824-11.106 21.065" fill="#2D1F1D"/><path d="M178.513 4.69c-7.764 2.26-9.066 5.418-14.945 8.802 0 .035 0 .07-.008.112-.557 2.112-1.234 4.163-2.091 6.137 1.594 7.52 5.887 20.623 17.215 19.187 13.711-1.74 9.572-13.398 10.489-23.54.326-3.662-8.903-7.997-10.66-10.698z" fill="#FBBB9D"/><path d="M178.479 34.236L190.167 52.8l-.917-17.603.309-11.7-11.08 10.74z" fill="#FBBB9D"/><path d="M181.083 38.425l2.425 3.886s8.261-4.994 9.795-14.046c.008 0-5.005 8.109-12.22 10.16z" fill="#EFA689"/><path d="M177.948 22.518c0-.805-.634-1.462-1.414-1.462-.745 0-1.345.588-1.405 1.341.197-.112.42-.173.66-.173.78 0 1.414.658 1.414 1.463 0 .043-.009.078-.009.12a1.47 1.47 0 0 0 .754-1.289z" fill="#fff"/><path d="M175.788 22.215c-.24 0-.463.07-.66.173 0 .043-.009.078-.009.121 0 .805.634 1.463 1.414 1.463.24 0 .463-.07.66-.173 0-.044.008-.078.008-.122 0-.804-.634-1.462-1.413-1.462z" fill="#543732"/><path d="M169.25 26.733c0-.805-.634-1.463-1.414-1.463-.746 0-1.345.589-1.405 1.342.197-.113.42-.173.659-.173.78 0 1.414.658 1.414 1.462 0 .044-.008.078-.008.122.445-.251.754-.727.754-1.29z" fill="#fff"/><path d="M167.089 26.43c-.24 0-.462.069-.66.173 0 .043-.008.078-.008.12 0 .806.634 1.463 1.414 1.463.24 0 .463-.069.66-.172 0-.044.008-.078.008-.122 0-.805-.634-1.462-1.414-1.462z" fill="#543732"/><path d="M171.648 26.81c-.205.641-.471 1.386-.111 1.948.24.39.703.563 1.148.658a6.403 6.403 0 0 0 3.539-.225c-.608-.121-1.217-.243-1.825-.355-.497-.095-1.054-.225-1.345-.658-.18-.268-.232-.606-.266-.926-.111-1.047-.043-2.336-.463-3.314-.334.199-.274.796-.317 1.15a9.816 9.816 0 0 1-.36 1.723z" fill="#EFA689"/><path d="M165.993 23.271c-.505.216-1.765 1.065-1.551 1.593.317.761 1.68-.078 2.365-.45.369-.2 1.86-1.056 1.62-1.55-.24-.493-1.868.165-2.434.407zm8.424-4.361c-.463.12-1.663.709-1.534 1.194.188.71 1.474.147 2.116-.095.343-.13 1.748-.684 1.594-1.143-.154-.467-1.654-.095-2.176.043zm-71.563 66.631c-.129.407-4.816 8.88-1.174 15.734 3.651 6.863 31.252 21.498 12.348 40.113-10.274 10.117-30.84-37.422-30.84-37.422l6.64-16.547 13.026-1.878z" fill="#2D1F1D"/><path d="M180.654 28.577a.699.699 0 0 0-.334-.217c.009.018.017.026.017.044.035.19-.008.39-.068.57-.283.797-1.02 1.325-1.56 1.965-.428.511-.754 1.126-1.251 1.584a.855.855 0 0 1-.608.242c.034.035.06.078.102.113.266.19.617.182.934.13a3.867 3.867 0 0 0 2.031-1.004c.557-.537.952-1.264 1.054-2.043.069-.493.009-1.03-.317-1.384z" fill="#280C08"/><path d="M177.476 32.532c.488-.45.814-1.065 1.251-1.584.54-.65 1.277-1.168 1.559-1.965.069-.181.103-.38.069-.57 0-.018-.017-.035-.017-.044-.137-.035-.274-.009-.412.026-.437.13-.822.415-1.131.761-.282.312-.462.684-.728 1.004-.249.286-.566.511-.831.788-.257.26-.489.571-.566.935-.068.311 0 .666.214.891.197.009.412-.078.592-.242z" fill="#fff"/><path d="M202.48 63.472c.266.813-9.375 71.676-9.375 71.676l18.364-.06 7.087-66.718" fill="#5A66FF"/><path d="M62.553 156.767l-1.31 31.718s2.433 1.575 2.81 1.766L64.807 157l-2.254-.233zm112.087-4.717l.222 45.557 3.582-1.515-.788-44.241-3.016.199zm12.288.407l1.876 37.889 3.737-2.605-2.597-35.674-3.016.39z" fill="#BA874A"/><path d="M125.229 96.774s-1.654-5.426-2.305-7.382c-.652-1.956-3.599-7.928-4.971-10.81-1.011-2.111-1.739-3.643-1.739-3.643s3.111-.528 4.404 1.687c1.294 2.216 4.285 6.093 5.528 6.006 1.919-.13 1.911-7.365 1.268-8.091-.651-.727-3.651-.52-5.93-2.277-2.288-1.748-1.045-3.28-1.045-3.28s8.732 1.307 9.811 2.58c1.08 1.272 1.431 5.642 1.431 5.642s.874-2.787 2.785-1.748c1.911 1.038.892 4.128.892 4.128s1.808-1.436 2.673-.813c.866.623.394 4.024.394 4.024s2.203-.83 2.503 1.082c.3 1.912-4.808 9.753-5.656 11.311-.848 1.558-1.911 5.686-1.911 5.686M83.685 62.701c.412-.13 16.873-3.124 19.667 11.372 3.153 16.331-5.562 24.163-16.265 25.782-10.703 1.618-12.982-4.276-15.407-15.769-2.425-11.493-3.976-16.236 12.005-21.385z" fill="#FBBB9D"/><path d="M73.479 90.404c-.146.442-2.425 15.864-2.425 15.864S78.706 126 84.13 125.117c5.425-.882 6.213-16.054 6.376-18.927.137-2.475 1.85-9.728 1.85-9.728" fill="#FBBB9D"/><path d="M91.371 101.803l22.949 37.24 8.552-43.273 14.534.589-12.829 71.538-81.87.138c-5.802.009-10.078-5.937-8.038-11.545.077-.216.171-.441.265-.657 2.708-6.188 37.91-54.177 37.91-54.177l10.344 18.52 8.183-18.373z" fill="#426B99"/><path d="M91.894 98.6l-1.002 4.552s-12.794-1.696-12.863-10.108c0 .009 4.765 6.854 13.865 5.556z" fill="#EFA689"/><path d="M79.58 73.918c-.309-.364 9.966 8.844 23.917 1.644 0 0-1.44-20.104-22.152-13.674-17.258 5.366-13.36 24.83-13.205 29.858.36 11.45-7.233 20.156-18.655 20.173-19.453.035-18.784 21.455-3.874 27.885 4.576-6.543 22.709-32.368 29.479-40.745 3.967-4.899 13.12-15.007 4.49-25.141z" fill="#2D1F1D"/><path d="M71.456 74.653s-7.138-8.507-2.339-13.336c4.747-4.769 11.603 2.034 11.603 2.034" fill="#2D1F1D"/><path d="M94.397 128.198l7.138 19.793 3.256-.649-8.39-18.235-2.004-.909z" fill="#2E5375"/><path d="M82.828 84.952c-.068 3.817-3.248 8.083-4.661 11.606a27.73 27.73 0 0 0-1.98 9.935c-.06 4.509.968 8.949 1.705 13.397.737 4.449 1.174 9.087-.051 13.415-1.225 4.327-4.43 8.317-8.715 9.199 3.102-3.392 3.848-8.464 3.428-13.102-.429-4.648-1.851-9.131-2.502-13.752-1.2-8.516.36-17.43 4.37-24.977" fill="#2D1F1D"/><path d="M77.686 110.336l9.898-.009-4.362 9.806-5.535-9.797zm11.475-29.763c-1.08-.312-2.202.355-2.502 1.471-.283 1.065.283 2.146 1.26 2.519a2.134 2.134 0 0 1 .017-1.013c.3-1.117 1.422-1.774 2.502-1.471.06.017.103.043.163.06a2.064 2.064 0 0 0-1.44-1.566z" fill="#fff"/><path d="M87.936 83.55a2.136 2.136 0 0 0-.017 1.013c.051.017.103.051.163.06 1.088.312 2.202-.355 2.502-1.471.094-.346.085-.693.017-1.013-.052-.017-.103-.052-.163-.06-1.08-.303-2.202.355-2.502 1.47z" fill="#543732"/><path d="M99.615 80.694c-1.08-.312-2.202.355-2.502 1.471-.283 1.065.283 2.146 1.26 2.519a2.134 2.134 0 0 1 .017-1.013c.3-1.116 1.422-1.774 2.502-1.471.06.017.103.043.163.06-.163-.727-.686-1.35-1.44-1.566z" fill="#fff"/><path d="M98.39 83.671a2.135 2.135 0 0 0-.017 1.012c.051.018.103.052.163.061 1.088.312 2.202-.355 2.502-1.471.094-.346.086-.692.017-1.013-.051-.017-.103-.052-.163-.06-1.08-.303-2.202.355-2.502 1.471z" fill="#543732"/><path d="M127.431 156.153c5.151-11.173 29.264-13.294 29.264-13.294l1.02 3.419-31.569 12.047-3.728.104-20.429-17.197 3.377-3.643s16.804 8.1 16.573 18.33c1.225.649 4.31.589 5.492.234z" fill="#fff"/><path d="M96.521 86.536c.154.787-.428 1.532-1.062 1.999a5.51 5.51 0 0 1-3.06 1.056c.497-.277.995-.554 1.414-.952.412-.398.737-.917.78-1.497.077-1.065-1.302-2.77-.583-3.704.472.424.772 1.142 1.294 1.6.48.425 1.08.814 1.217 1.498z" fill="#EFA689"/><path d="M121.742 156.325l-.48.303 1.139 1.177 3.351.615 1.517-.684.257-.442-5.784-.969z" fill="#A83B29"/><path d="M100.438 139.864l23.274 18.781 35.52-12.852c1.045-.381 2.168.303 2.357 1.428l7.361 37.785c.12.632-.232 1.255-.823 1.454l-32.246 10.766-6.256.061-20.72-16.617a4.32 4.32 0 0 1-1.517-2.466l-8.192-37.526c-.155-.744.668-1.281 1.242-.814z" fill="#E2A334"/><path d="M90.566 156.36s8.373-6.508 10.763-7.296l1.132 5.981s2.913 3.652 8.929 4.431c4.139.536 6.547.112 7.549.891 1.003.779-4.37 2.441-7.943 2.449 0 0 7.943 1.974 9.074 2.233.849.944-.111 1.965-3.522 1.965-2.013 0-4.601-.45-4.601-.45s3.102 2.267 3.967 3.012c1.663 1.445.729 2.648.729 2.648s-3.985-1.065-5.87-2.233c0 0 3.128 2.614 2.056 3.592a518.185 518.185 0 0 1-5.201-2.683s-7.653-3.453-16.273-2.865c-.403-4.448-.789-11.675-.789-11.675z" fill="#FBBB9D"/><path d="M121.262 156.628s1.131 1.956 6.29.658l8.337 40.027s-2.656 2.016-6.281 0l-8.346-40.685z" fill="#FFC757"/><path d="M121.955 155.875l-.685.779 6.255.64-.154-.952-5.416-.467z" fill="#EF5633"/><path d="M87.815 89.288s.489 4.198 5.365 3.003l-5.365-3.003z" fill="#E07955"/><path d="M137.509 31.476c0-9.91-7.704-17.95-17.216-17.95-.094 0-.189.018-.291.018h-.017c-.583-.061-5.433-.044-6.033-.044-9.598 0-17.379 8.04-17.379 17.95s7.781 17.95 17.379 17.95c.565 0 5.673.12 6.221.06.094-.009.171-.026.266-.044 9.434-.077 17.07-8.074 17.07-17.94z" fill="#918176"/><path d="M119.453 48.118c8.912 0 16.136-7.462 16.136-16.668s-7.224-16.669-16.136-16.669c-8.911 0-16.136 7.463-16.136 16.669s7.225 16.668 16.136 16.668z" fill="#fff"/><path d="M131.656 30.567h-9.032c-.309 0-.574-.173-.737-.442l-.009-.008c-.454-.727-.762-1.54-.762-2.406v-5.877c0-.735-.489-1.419-1.191-1.54-.9-.147-1.68.562-1.68 1.462v6.05c0 .83-.309 1.601-.754 2.293a2.797 2.797 0 0 0-.394 2.06c.205 1.082 1.088 1.956 2.142 2.13a2.612 2.612 0 0 0 2.639-1.178.824.824 0 0 1 .686-.372h9.092c.583 0 1.054-.485 1.054-1.09a1.063 1.063 0 0 0-1.054-1.082z" fill="#2B2B2B"/><path d="M119.684 32.877c.682 0 1.234-.57 1.234-1.272 0-.702-.552-1.272-1.234-1.272-.681 0-1.234.57-1.234 1.272 0 .703.553 1.272 1.234 1.272z" fill="#fff"/><path d="M119.531 18.563c.558 0 1.011-.465 1.011-1.038 0-.574-.453-1.039-1.011-1.039-.559 0-1.011.465-1.011 1.039 0 .573.452 1.038 1.011 1.038zm9.605 4.674c.559 0 1.011-.465 1.011-1.038 0-.574-.452-1.039-1.011-1.039-.558 0-1.011.465-1.011 1.039 0 .573.453 1.038 1.011 1.038zm-9.605 23.341c.558 0 1.011-.465 1.011-1.039 0-.573-.453-1.038-1.011-1.038-.559 0-1.011.465-1.011 1.038 0 .574.452 1.04 1.011 1.04zm-13.48-14.003c.559 0 1.011-.465 1.011-1.038 0-.574-.452-1.039-1.011-1.039-.558 0-1.011.465-1.011 1.039 0 .573.453 1.038 1.011 1.038zm22.923 9.174c.559 0 1.011-.465 1.011-1.039 0-.573-.452-1.038-1.011-1.038-.558 0-1.011.465-1.011 1.038 0 .574.453 1.039 1.011 1.039zm-19.615-18.764c.558 0 1.011-.465 1.011-1.038 0-.574-.453-1.039-1.011-1.039-.559 0-1.011.465-1.011 1.039 0 .573.452 1.038 1.011 1.038zm.608 19.222c.559 0 1.011-.465 1.011-1.039 0-.573-.452-1.038-1.011-1.038-.558 0-1.011.465-1.011 1.038 0 .574.453 1.039 1.011 1.039z" fill="#2B2B2B"/><path d="M89.272 62.277s3.84-6.958 8.921-5.547c5.082 1.42 1.328 10.281 1.328 10.281" fill="#2D1F1D"/><path d="M68.654 70.179c.146-.182 9.16-9.114 9.16-9.114l2.118 1.446-10.224 9.719-1.054-2.051zm21.663-9.502l1.252-1.515 8.989 4.656-.617 2.216c.008 0-5.347-4.51-9.624-5.357z" fill="#E07955"/><path d="M66.195 131.911l-1.311 5.426-12.726 16.072 37.585-.519.831 3.479 2.914-2.536-3.128-3.756s-28.793-.943-28.587-1.255c.206-.312 4.85-10.957 4.85-10.957l-.428-5.954z" fill="#2E5375"/><path d="M202.618 58.071l-3.634 35.293-5.441 1.523 7.258-35.232 1.817-1.584z" fill="#3F51D1"/><path d="M173.911 157.944h38.853a5.027 5.027 0 0 1 1.525-1.168c.317-.156-.017-.485-.017-.485h-39.478c-2.7 0-4.885 2.259-4.885 5.046 0 2.786 2.185 5.045 4.885 5.045h39.461s.352-.329.043-.476a5.006 5.006 0 0 1-1.74-1.402H173.92v-6.56h-.009z" fill="#C17E74"/><path d="M212.764 157.944h-38.853v6.552h38.639a5.127 5.127 0 0 1-1.088-3.168 5.113 5.113 0 0 1 1.302-3.384z" fill="#EFEFEF"/><path d="M168.975 148.034h45.751a5.015 5.015 0 0 1 1.525-1.168c.317-.156-.017-.485-.017-.485h-46.385c-2.691 0-4.876 2.259-4.876 5.037s2.185 5.037 4.876 5.037h46.368s.351-.321.043-.476a4.917 4.917 0 0 1-1.74-1.402h-45.537v-6.543h-.008z" fill="#6D504D"/><path d="M125.829 80.356s1.011.667 2.057-.415c.891-.917-.017-2.103-.017-2.103l-2.04 2.518z" fill="#E07955"/><path d="M113.146 65.35s.394 1.618.343 1.575c-.052-.043-1.611-.121-1.611-.121l.531 1.29-1.791.016 13.917 11.398c.094-.147 2.271-2.795 2.271-2.795l-13.66-11.363z" fill="#2B2B2B"/><path d="M214.726 148.034h-45.751v6.552h45.537a5.12 5.12 0 0 1-1.089-3.159 5.08 5.08 0 0 1 1.303-3.393z" fill="#EFEFEF"/><path d="M125.871 80.65l2.297-2.812a.341.341 0 0 0-.043-.467l-2.142-1.766a.308.308 0 0 0-.429.035l-2.399 2.63a.333.333 0 0 0 .026.477l2.245 1.956a.32.32 0 0 0 .445-.052zm-12.725-15.3l-1.791-.537-1.457 1.505.712 1.81 1.791-.018-.532-1.29s1.551.078 1.611.122c.06.043-.334-1.593-.334-1.593z" fill="#E2A334"/><path d="M109.512 64.25c-.197-.06-.368.139-.291.33l.686 1.73 1.456-1.506-1.851-.554z" fill="#2B2B2B"/><path d="M190.673 48.361s2.348 46.579 2.871 46.527c.522-.052 4.044-1.22 4.044-1.22l-4.019-45.307h-2.896z" fill="#2F43A5"/><path d="M209.242 135.07s1.509 10.983-2.622 11.277c-4.13.294-13.265.139-13.265.139s2.682 4.171 1.525 6.612a.63.63 0 0 1-1.088.095l-4.91-6.803-3.848 3.237s1.44 5.634-1.2 6.63c-.334.129-.694-.13-.745-.494l-1.114-7.65v.034s1.397 5.773-.754 7.53a.592.592 0 0 1-.943-.312c-.488-1.739-1.362-4.457-2.108-6.863-.411-1.315.129-2.752 1.286-3.436 2.673-1.584 6.521-3.86 8.852-4.976.788-.381 6.692-4.855 6.692-4.855l14.242-.165z" fill="#FBBB9D"/><path d="M199.318 151.435v10.083l2.143-2.562 2.459 2.501v-10.108l-4.602.086z" fill="#EF5633"/><path d="M180.86 73.2l2.819-10.178-1.319 15.058s-1.748-3.626-1.5-4.88z" fill="#3F51D1"/><path d="M191.401 12.505c-3.839-7.227-9.855-12.644-21.783-6.95-11.74 5.591-7.653 16.461-7.653 16.461l16.307-8.654s-.171 9.295 5.451 14.271c2.279 2.025 6.015 1.973 4.258 11.182-2.656 13.881 2.794 34.237 23.095 27.945 5.664-1.757 14.379-7.85 11.08-21.498-3.454-14.262-12.931-13.709-13.84-17.465-4.061-16.633-12.734-7.416-16.915-15.292z" fill="#543732"/><path opacity=".46" d="M166.421 30.627c2.414 0 4.37-2.018 4.37-4.509 0-2.49-1.956-4.509-4.37-4.509s-4.37 2.02-4.37 4.51c0 2.49 1.956 4.508 4.37 4.508zm10.129-4.335c2.414 0 4.37-2.018 4.37-4.509 0-2.49-1.956-4.509-4.37-4.509s-4.37 2.02-4.37 4.51c0 2.49 1.956 4.508 4.37 4.508z" fill="#fff"/><path d="M195.163 89.945c.568 0 1.028-.476 1.028-1.064 0-.588-.46-1.065-1.028-1.065-.568 0-1.028.477-1.028 1.065s.46 1.064 1.028 1.064zm-.892-9.381c.568 0 1.029-.476 1.029-1.064 0-.588-.461-1.064-1.029-1.064-.567 0-1.028.476-1.028 1.064 0 .588.461 1.064 1.028 1.064zm-.633-9.554c.568 0 1.028-.477 1.028-1.065 0-.587-.46-1.064-1.028-1.064-.568 0-1.029.477-1.029 1.064 0 .588.461 1.065 1.029 1.065z" fill="#2D1F1D"/></g></g><defs><clipPath id="clip0"><path fill="#fff" d="M0 0h220v159H0z"/></clipPath><clipPath id="clip1"><path fill="#fff" d="M24 3.176h203.649v203.623H24z"/></clipPath></defs></svg>