<svg viewBox="0 0 220 160" fill="none" xmlns="http://www.w3.org/2000/svg"><g clip-path="url(#clip0)"><path d="M75.1121 64.5871S30.783 82.2316 31.0008 123.402c.2178 28.863 23.4171 60.013 66.0036 58.053C169.325 178.296 226.615 78.9641 199.822 33.6547c-26.794-45.3094-83.104-11.1095-98.788 4.5745-15.6837 15.684-25.9219 26.3579-25.9219 26.3579z" fill="#E4F7FA"/><path d="M161.59 41.0611l-38.012-18.8427-27.4475 25.0509s-1.5248 52.4979 47.3785 54.4587c0 0 0 8.168 9.04 7.406 0 0-.326 25.595 21.675 29.408 15.575-18.625 26.576-40.7353 30.605-61.3206L161.59 41.0611z" fill="#D8D260"/><path d="M164.966 98.4602s5.663 4.3568 14.486.2179c0 0 .762 5.3369 6.426 5.9899.109-.108-13.288 7.734-20.912-6.2078zM130.548 77.1125s-3.159 2.5051-9.585 1.6337c0 0 8.06 9.258 25.487 2.3962 0 0 2.723-1.8516 4.901-6.535 1.525-3.3764-.327-6.2083-.327-6.2083s-2.396 3.7032-7.406 4.7924" fill="#C1BD40"/><path d="M179.452 98.5691c-1.852.8713-4.575 1.7429-7.08 1.8519-1.198 6.099-3.812 16.337-7.624 16.337-4.357 0-16.773-31.6946-21.239-43.6754-2.723.6535-5.772.7624-7.842-1.0892-1.089 2.1783-2.941 4.1388-5.119 5.0102C137.846 88.1131 157.5 130.716 157.5 163.5c0 0 6.678 14.892 15.5 4 0-1.198 3.293-53.465 10.046-63.921-1.852-1.089-3.268-2.94-3.594-5.0099z" fill="#C68B63"/><path d="M199.819 33.6547c-6.099-10.456-13.832-16.6643-22.328-19.8229-4.465-.9802-8.822-1.9605-13.397-2.7229-10.673-.5446-21.674 2.3962-31.694 6.6439-1.743 4.6835-2.07 9.9115-.654 14.7038 2.179 7.0796 8.605 12.8522 16.011 13.5057-5.119 4.7923-6.426 12.7433-3.812 19.1693 2.614 6.4261 8.931 11.0006 15.684 12.3076 6.862 1.307 14.05-.6535 19.714-4.6834-.871 1.5249-.436 3.7032.98 4.9013 1.416 1.0891 3.594 1.0891 4.901 0-.544 5.7726 2.505 11.4363 6.971 15.0305 1.961 1.5248 4.466 3.1586 6.753 4.0299 9.476-22.9814 10.565-46.5075.871-63.0628z" fill="#C1BD40"/><path d="M138.39 39.6451c16.664-1.9605 16.338-16.2286 16.338-16.2286s2.723 8.6044 9.693 5.7726c0 0 14.051 4.4656 30.279-2.1784.109-.1089.327-.1089.436-.2178-20.803-25.8133-54.241-15.4662-76.242-2.1783l.654 1.5248c0 .1089 2.178 15.4662 18.842 13.5057z" fill="#C1BD40"/><path d="M74.6739 41.4967s-1.6337-11.763 7.6242-15.1394c9.2579-3.3764 17.9709 3.4853 17.9709 3.4853L74.6739 41.4967z" fill="#FFC06C"/><ellipse cx="197.5" cy="108.5" rx="38.5" ry="33.5" fill="#D8D260"/><ellipse cx="99.5" cy="24.5" rx="38.5" ry="33.5" fill="#D8D260"/><ellipse cx="140.5" cy="17" rx="27.5" ry="24" fill="#C1BD40"/><ellipse cx="176.5" cy="17" rx="27.5" ry="24" fill="#C1BD40"/><ellipse cx="206.5" cy="17" rx="27.5" ry="24" fill="#C1BD40"/><ellipse cx="211.5" cy="76" rx="27.5" ry="24" fill="#C1BD40"/><ellipse cx="211.5" cy="45" rx="27.5" ry="24" fill="#C1BD40"/><path d="M122.379 19.1687c7.189 6.7529-12.852 28.3184-27.6645 36.4872-14.8127 8.1687-30.2788 14.7037-34.9623 6.0993-3.2675-5.8815.8714-12.4165 5.7726-15.9018 4.2478-2.9408 9.258-4.5745 13.6146-7.2975 7.1885-4.4656 12.0898-11.6541 19.1694-16.3375 6.2082-4.0299 17.6442-9.149 24.0702-3.0497z" fill="#ED9D29"/><path d="M174.006 31.4764c.544-.4357 1.743-.7624 2.505-.8713.327 0 .653 0 .871.2178 1.525.8713 2.179 1.7427 5.01 1.9605.545 0 .763-.3268.545-.7624-1.525-3.3764-4.792-5.8815-8.713-4.5745 1.633-1.416 3.594-2.9408 5.228-3.921 2.614-1.6338 3.267-3.8121 3.485-5.0102 0-.3268-.327-.6535-.653-.4357-1.634.9803-6.753 4.1389-9.258 5.6637.435-.6535.871-1.1981 1.307-1.6338 1.307-1.5248 1.851-2.614 2.069-3.812.109-.4357-.436-.7625-.871-.5446l-1.961 1.307c-1.634 1.0891-3.921 3.0496-5.337 5.0101-.871 1.1981-3.049 5.2281-3.049 5.2281l1.633-5.2281s2.723-5.4458.872-5.7725c-.654.5445-1.198 1.0891-1.961 2.3961-1.307 2.1784-1.851 4.1389-2.723 6.535-1.307 3.8121-2.396 5.7726-2.832 7.5153-.98 4.0299-1.198 15.5751-1.198 15.5751l8.932 3.0497c.217-.1089 11.218-10.6739 11.763-11.6541.544-.9803 2.396-5.337 2.722-6.0994.327-.7624-2.178-1.307-4.029.3268-1.743 1.6337-2.941 6.3172-6.209 4.9012-2.723-1.4159-1.307-6.8617 1.852-9.3668z" fill="#FBBB9D"/><path d="M108.656 82.1227c.544.4356 14.159 11.3273 37.031 10.6738 14.595-.4357 10.565-32.675 11.981-43.6756l13.615 4.0299s2.723 52.3892-14.159 57.3992c-22.546 6.644-37.032.218-37.032.218" fill="#5A66FF"/><path d="M125.538 159.018c-.871-1.852-1.634-3.812-2.178-5.882-.109-.326-.218-.762-.327-1.198-.109-.435-.327-.98-.436-1.524v-.327c-.218-.763-.435-1.634-.653-2.396-2.07-3.812-3.921-7.842-3.812-11.328.218-7.733 3.267-16.119 4.465-21.565 5.773-25.8135-17.644-35.8339-17.644-35.8339l-11.8722.4357s-12.7432-.1089-23.9617 13.2878C56.4848 107.827 50.7122 119.372 44.395 136.581c-2.7229 7.406.8713 14.704 6.535 16.12 12.8522 3.267 30.7146 3.049 39.8636 2.614 12.4164 4.465 29.0804 4.03 34.7444 3.703z" fill="#5A66FF"/><path d="M46.1377 149.651l6.6439 5.01 35.398-4.465s-.4357-8.387 2.614-9.912l-26.3579-3.049-18.298 12.416z" fill="#4153D6"/><path d="M70.6438 91.4895s1.9605-2.5051 7.7331-.3267c5.7726 2.1783 8.7133 12.7432 3.2675 21.8922-4.9013 8.387-12.9611 21.566-14.377 23.962-.109.218-.2179.327-.2179.327l-20.8031 12.307s-5.0102-3.485-2.614-11.218c2.3962-7.733 13.07-33.111 27.0114-46.9435z" fill="#4153D6"/><path d="M88.7241 81.1425h.2178c.2179-.109.4357-.109.5446-.2179l-.7624.2179zM89.4866 80.9246l1.5248-.3268s-.5446.109-1.5248.3268z" fill="#7D9190"/><path d="M112.686 40.7343c.871.6535 17.209 33.4375.327 37.3585-19.7144 4.5745-30.2794-11.7631-30.2794-11.7631l11.7631-23.4171 10.2383-5.228 7.624 3.5943" fill="#5E3D37"/><path d="M105.497 70.7953c0-2.3961-13.7233-.3267-13.7233-.3267.8713.2178.6535 7.1885-.8714 12.5254 0 0 1.8516 4.6834 6.4261 5.4459-.1089-1.0892 0-2.1784.6535-3.1586.9803-1.5249 2.9411-1.6338 4.5741-1.4159.436.1089.436.4356.327.6535.763.6535.218 1.6337-.435 2.1783.217.1089.435.4357.326.6535v.1089c.109 0 .218 0 .327.1089 2.396-1.1981 2.723-3.0496 2.723-3.0496s-.327-11.4363-.327-13.7236z" fill="#FBBB9D"/><path d="M104.626 74.9342s-4.03 4.7923-13.2879 4.7923c0 0 .6535-5.3369.109-7.1885-.5446-1.8516 14.1589-1.307 14.1589-1.307l-.98 3.7032z" fill="#EFA689"/><path d="M91.4469 77.0036s2.8318 5.228 9.3671 6.2082l-1.8519 8.0599c-.2178.7624-.9802 1.1981-1.7426.8713-2.8319-1.307-9.0401-4.9012-9.6936-10.6738l3.921-4.4656z" fill="#fff"/><path d="M82.9515 44.1107s-2.3962 34.091 17.8625 31.9126c20.258-2.1783 9.367-41.0616 9.367-41.0616l-27.2295 9.149z" fill="#FBBB9D"/><path d="M74.8916 66.4386c.1089.6535.3268 1.307.4357 1.9605h.1089c0-1.307-.2178-2.614-.4357-3.8121 0 .6535 0 1.1981-.1089 1.8516zM95.259 53.1508s1.307-2.2872 3.921-2.5051c2.614-.2178 2.941 1.6338 2.178 1.7427-.871.1089-6.099.7624-6.099.7624zM106.695 51.2993s1.307-2.2873 3.921-2.5051c2.614-.2179 2.941 1.6337 2.179 1.7426-.763.2179-6.1.7625-6.1.7625z" fill="#3D3D3D"/><path d="M106.26 56.3093c.871.7625 2.614 2.0695 2.505 2.8319-.109 1.0892-2.614 3.3764-2.832 3.1586-.218-.2179 1.525-2.0694 1.525-2.9408 0-1.0891-.981-2.1783-1.416-2.8318-.218-.2179-.109-.5446.218-.2179z" fill="#EFA689"/><path d="M99.0711 64.9138c-.1089.1089-.2178.3268-.2178.5446 0 .3268 0 .5446.1089.8713.5446 1.416 1.9608 2.5051 3.3768 2.9408.871.3267 1.742.4357 2.614.1089.871-.2178 1.633-.8713 1.851-1.7427v-.2178c-4.356.4357-6.9705-1.6337-7.7329-2.5051z" fill="#6B4E4E"/><path d="M106.804 66.8743c0-.1089-.109-.3267-.217-.4356-.654-.7625-1.743-.8714-2.832-.9803-.327 0-.763 0-1.089-.2178-.327-.109-.545-.3268-.763-.4357-.544-.3267-1.089-.6535-1.743-.5446-.4352 0-.8709.2179-1.0887.5446.8713.8713 3.4857 2.9407 7.8417 2.614 0-.1089 0-.3268-.109-.5446z" fill="#fff"/><path d="M96.7839 56.7451h-.2178c-.3268-.1089-.4357-.4357-.3268-.7624 0-.1089.8714-2.2873 3.0497-2.5051 2.178-.1089 2.941 2.1783 3.05 2.2872.109.3268 0 .6535-.327.7625-.327.1089-.654 0-.762-.3268 0-.1089-.545-1.6337-1.8521-1.5248-1.4159.1089-2.0694 1.7426-2.0694 1.7426 0 .109-.2178.3268-.5446.3268zM108.982 55.547c-.108 0-.108 0 0 0-.435 0-.653-.3268-.544-.6535.109-1.0892.762-2.8318 2.287-2.614 1.634.2178 2.07 2.1783 2.179 2.2872.108.3268-.109.6535-.436.6535-.327.109-.654-.1089-.654-.4356 0 0-.326-1.1981-1.198-1.307-.544 0-.871 1.1981-.98 1.6337-.109.2179-.436.4357-.654.4357z" fill="#D39079"/><path d="M121.073 144.532c-2.832-6.971-2.941-12.308.762-25.16 3.05-10.783 1.198-18.298.871-19.7137-1.633-5.3369-3.485-11.763-13.179-17.9713l-1.525 2.8318s9.15 5.9905 10.674 15.4662c-6.535.98-19.3869 2.941-25.2684 3.812.2179 0 .5446-.109.8714-.109-4.2478-15.5749-11.872-20.0405-13.0701-20.2583l-1.198-.4357-1.307 2.0694s9.5846 7.5153 12.1986 19.1696c0 0 2.8319 14.159-1.7426 23.635-3.8121 7.733-17.5356 9.802-17.5356 9.802l19.3872 2.614-5.6637 41.28c24.5062 2.178 46.3982-9.149 46.3982-9.149s-5.337-14.704-10.673-27.883z" fill="#F0F0F0"/><path d="M104.299 142.354c.218 0 4.901.218 8.713-.327 1.743-.545 5.664-1.525 5.991-1.416.218.109.762 3.376-5.664 4.575-4.248.762-2.832.326-4.03 1.198-1.198.871-5.01-4.03-5.01-4.03z" fill="#EDAD94"/><path d="M89.5292 154.947c1.1373.113 2.3822-3.047 2.7805-7.057.3983-4.011-.2008-7.353-1.3381-7.466-1.1373-.113-2.3821 3.046-2.7805 7.057-.3983 4.01.2008 7.353 1.3381 7.466z" fill="#61706F"/><path d="M73.04 154.661s-31.1502 1.416-32.6751 10.456c-1.5248 9.04 4.6835 29.408 32.6751 27.665 11.1095-.653 18.8426-2.941 24.1795-5.446 7.8425-3.703 12.7435-12.852 11.3275-22.219-.654-3.921-2.287-7.406-6.099-8.495-10.1297-2.832-27.0118-2.614-29.408-1.961z" fill="#EA9E6A"/><path d="M93.5165 142.245s9.4755 9.802 13.3965 17.971l-2.832.545s-7.0792-11.763-15.3569-16.229M40.365 165.117s3.8121-29.952 31.368-31.259c3.5943-.218 14.486-.327 21.1299 6.862 0 0-13.3968-2.178-21.1299-1.961-9.2579.218-22.0012 6.209-26.2489 23.2" fill="#EA9E6A"/><path d="M90.9025 140.284c1.5248.109 9.1495.654 18.2985 2.832.108 0 .108 0 .217.109 9.912 5.337 10.783 10.892 12.853 15.793.217.436-.218.98-.763.871-1.416-.327-2.941-1.525-4.357-5.228 0-.109-.108-.109-.108-.218-2.614-2.723-5.773-5.01-5.773-5.01s5.664 5.773 7.406 12.961c.109.545-.326.981-.871.872-1.634-.545-4.248-3.704-5.882-7.08 0-.109-.108-.218-.108-.218-2.179-2.941-4.466-5.119-4.466-5.119s4.466 6.862 4.792 10.674c0 .545-.435.871-.98.654-1.416-.654-3.485-2.723-4.248-5.446 0-.109 0-.109-.109-.218-1.96-3.159-4.03-5.664-4.03-5.664s3.486 5.882 4.03 9.258c.109.436-.217.762-.653.654-1.307-.218-2.505-1.743-2.941-2.397-2.396-3.921-3.4852-6.099-4.7922-6.97-.1089-.109-.3268-.109-.4357-.109-5.3369.327-8.9312-1.416-10.0203-2.07-.2179-.109-.3268-.435-.3268-.653.1089-.98.4357-3.377.8713-4.901.5446-1.634 1.307-2.614 1.7427-2.941.3268-.327.5446-.436.6535-.436z" fill="#FBBB9D"/><path d="M101.903 157.166c-.436-4.792-5.8814-9.258-10.347-8.277-1.5249-1.198-3.3765-1.852-5.337-1.852-2.614 0-4.9012 1.198-6.535 2.941-1.4159-2.941-4.3566-5.01-7.842-5.01-2.9407 0-5.4458 1.416-7.0796 3.594-1.0891-.871-2.5051-1.307-3.921-1.307-3.0496 0-5.5547 2.069-6.4261 4.792-.7624-.218-1.5248-.435-2.2872-.435-3.7032 0-6.6439 3.049-6.6439 6.644 0 .98.2178 1.851.5445 2.722-1.307 1.307-2.1783 3.159-2.3961 5.12h.1089c-.1089.217-.1089.435-.1089.653.3267 4.139 14.1592 6.317 30.9323 4.901 15.3573-1.307 21.3477-1.633 23.1993-5.554 1.5249-.872 4.5748-4.684 4.1388-8.932zm-36.4871.436c-.2178 0-.5446.109-.7624.109.3268 0 .5446 0 .7624-.109zm5.9905-.762c-.3268 0-.6535.109-.9803.109.3268 0 .6535 0 .9803-.109zm-1.5249.217c-.3267 0-.5446.109-.8713.109.2178-.109.5446-.109.8713-.109zm-1.5248.218c-.3268 0-.5446.109-.8713.109.3267-.109.5445-.109.8713-.109zm-1.5249.109c-.2178 0-.5445.109-.7624.109.2179 0 .5446 0 .7624-.109zm-5.5547.98c-.2178 0-.4357.109-.6535.109.2178 0 .4357-.109.6535-.109zM64 157.82c-.2178 0-.4357.109-.6535.109.2178 0 .4357 0 .6535-.109zm-1.307.327c-.2178 0-.4357.109-.6535.109.2178-.109.4357-.109.6535-.109zm-6.3172 1.307c-.1089 0-.3267.109-.4356.109.1089 0 .2178 0 .4356-.109zm3.5943-.872c-.2178 0-.4357.109-.5446.109.2178 0 .4357 0 .5446-.109zm-1.1981.327c-.2178 0-.3267.109-.5446.109.1089 0 .3268-.109.5446-.109zm-1.1981.327c-.2178 0-.3267.109-.5446.109.109-.109.3268-.109.5446-.109zm-2.3961.544c-.109 0-.2179.109-.4357.109.2178 0 .3267-.109.4357-.109zm-1.0892.327c-.1089 0-.2179.109-.3268.109.1089 0 .2179-.109.3268-.109zm-6.2083 2.287c0 .109 0 .109 0 0 0 .109 0 .109 0 0zm-.6535.436s-.1089 0-.1089.109l.1089-.109zm-.6535.327s-.1089 0-.1089.109l.1089-.109zm-.5446.327c0 .108-.1089.108 0 0-.1089.108 0 .108 0 0zm-.9802.762s-.1089.109 0 0c-.1089.109 0 0 0 0zm-.7624.871c0-.109 0-.109 0 0 0-.109 0-.109 0 0zm27.6648-8.277c.5446 0 .9803-.109 1.5249-.109-.5446 0-.9803 0-1.5249.109z" fill="#C1BD40"/><path d="M97.982 164.246c0 .98-.1089 1.852-.3267 2.723-6.8618 3.05-12.3076 3.703-17.7535 4.139-1.6337-1.852-2.614-4.248-2.614-6.862 0-5.773 3.4854-11.654 10.1293-8.278 9.3669-1.742 10.5649 2.505 10.5649 8.278z" fill="#E5E553"/><path d="M61.0593 168.929c1.5248-3.594 5.0102-6.208 9.149-6.208 2.7229 0 5.1191 1.089 6.9707 2.832 2.614-4.683.8713-11.001-1.8516-11.545-3.4853-.763-5.228.109-7.5152 1.96-1.0892-.871-3.9211-2.505-7.6242-1.089-3.5943 1.416-3.921 10.02.8713 14.05z" fill="#D1C822"/><path d="M58.5542 158.909c-.1089 0-.2178 0-.3267.109.1089 0 .2178 0 .3267-.109-1.4159-.654-3.2675-.654-5.8815.545-2.9407-2.506-5.9904-1.743-7.842.217-1.6337 1.743-1.4159 4.248-1.307 6.426h.1089c0 .218-.1089.327-.1089.545 0 .218.1089.436.1089.654.8714 2.505 6.7529 4.247 15.2484 4.683 1.6337-1.634 2.614-3.921 2.614-6.317 0-2.941-.8713-5.664-2.9408-6.753zm-14.2681 6.208c0-.109 0-.109 0 0 0-.109 0-.109 0 0zm.6535-.762s.109-.109 0 0c.109-.109 0 0 0 0zm.4357-.436c.1089 0 .1089 0 0 0 .1089 0 .1089 0 0 0zm.5446-.327s.1089 0 0 0c.1089 0 0 0 0 0zm.5446-.326s.1089 0 .1089-.109l-.1089.109zm.6535-.436s.1089 0 .1089-.109c0 .109 0 .109-.1089.109zm1.5248-.654c0-.108 0-.108 0 0 0-.108 0-.108 0 0zm5.1191-1.96c.1089 0 .2178-.109.3268-.109-.109 0-.2179.109-.3268.109zm1.0892-.327c.1089 0 .2178-.109.4356-.109-.2178 0-.3267.109-.4356.109zm1.0891-.327c.109 0 .3268-.108.4357-.108-.2178.108-.3267.108-.4357.108zm1.0892-.217c.2178 0 .3268-.109.5446-.109-.2178 0-.4357 0-.5446.109z" fill="#E5E553"/><path d="M51.5834 161.196s-.109-3.703 2.614-5.99c.2178-.109.6535-.436.9802-.109.1089.109.3268.653.1089.871-.7624.872-2.614 2.832-2.614 4.902l-1.0891.326zM67.4853 157.384c-.5446-3.812-2.614-5.664-3.7032-6.317-.4356-.218-.2178-.762-.1089-.871.4357-.545 1.1981-.436 1.6338 0 1.0891 1.089 2.7229 3.158 3.0496 5.663 0 .327-.1089.763-.4356.981l-.4357.544zM87.3081 158.256c.5446-3.813 2.614-5.664 3.7032-6.318.4357-.217.2178-.762.1089-.871-.4357-.545-1.1981-.436-1.6338 0-1.0891 1.089-2.7229 3.159-3.0496 5.664 0 .326.1089.762.4356.98l.4357.545zM79.793 151.176c.5445-3.812 2.614-5.664 3.7031-6.317.4357-.218.2179-.763.1089-.872-.4356-.544-1.198-.435-1.6337 0-1.0892 1.09-2.7229 3.159-3.0497 5.664 0 .327.1089.763.4357.98l.4357.545z" fill="#6F7F54"/><path d="M80.5554 162.939l5.3369 6.099c.2178.218.6535.218.8713 0 1.7427-1.742 8.3866-8.495 7.2975-9.258-1.307-.871-7.6242 5.882-7.6242 5.882s-5.0102-4.901-5.9904-4.357c-.9803.545.1089 1.634.1089 1.634z" fill="#F2F2AD"/><path d="M69.119 165.989s-.1089-3.704 2.614-5.991c.2178-.109.6535-.435.9803-.109.1089.109.3267.654.1089.872-.7624.871-2.614 2.831-2.614 4.901l-1.0892.327z" fill="#6F7F54"/><path d="M100.923 83.1029c-.218.1089 1.525 4.7924 2.505 7.2975.327.7624 1.307.8713 1.742.3267 1.307-1.6338 3.595-4.7923 4.793-8.6044l-4.357-5.1191s-.327 4.9012-4.683 6.0993z" fill="#fff"/><path d="M106.695 26.7929c-7.9507-.4357-14.7035 7.2974-19.9315 12.1987-3.1586 3.0497-22.7637 25.7044-21.4567 39.7546.4357 4.7924 5.6637 7.1885 11.3274 7.4064 6.3172.2178 13.2878-2.2873 14.4859-7.0796 1.7427-6.535 2.614-24.5063.9803-30.3878 6.0993-.1089 14.1596-.6535 19.9316-4.0299 4.793-10.1293 4.793-17.2089-5.337-17.8624z" fill="#724D44"/><path d="M87.5259 55.8737s-2.3962-2.2873-3.8121-.5446c-2.1783 2.614 2.1783 7.4064 4.3567 7.0796l-.5446-6.535z" fill="#FBBB9D"/><path d="M103.972 105.975c-.871 0-3.376.545-3.376.545l1.089 6.862 3.703-.545s2.723-.871 2.505-3.703c-.326-2.832-3.049-3.159-3.921-3.159zm.763 4.793l-1.089.218-.436-2.723s.653-.109 1.089-.109c.436 0 1.198.218 1.307 1.089.109.871-.871 1.525-.871 1.525zM111.923 104.56c-2.069.326-3.485 2.287-3.267 4.356.327 2.07 2.287 3.486 4.357 3.268 2.069-.218 3.485-2.288 3.267-4.357-.436-2.178-2.287-3.594-4.357-3.267zm.654 5.228c-.763.108-1.525-.436-1.634-1.199-.109-.762.436-1.524 1.198-1.633.763-.109 1.525.435 1.634 1.198.109.762-.436 1.416-1.198 1.634z" fill="#000200"/><path d="M101.903 115.124s2.614 1.307 7.515.545c4.901-.762 6.426-2.614 6.426-2.614l.327 2.505s-3.159 2.614-6.644 3.159c-3.485.435-7.406-1.089-7.406-1.089l-.218-2.506z" fill="#FC484C"/><path opacity=".52" d="M97.2196 61.1017c4.1504 0 7.5154-3.3647 7.5154-7.5153 0-4.1505-3.365-7.5152-7.5154-7.5152-4.1506 0-7.5153 3.3647-7.5153 7.5152 0 4.1506 3.3647 7.5153 7.5153 7.5153zM113.23 58.5967c4.151 0 7.516-3.3647 7.516-7.5153 0-4.1505-3.365-7.5152-7.516-7.5152-4.15 0-7.515 3.3647-7.515 7.5152 0 4.1506 3.365 7.5153 7.515 7.5153z" fill="#F9E7E1"/></g><defs><clipPath id="clip0"><path fill="#fff" d="M0 0h220v160H0z"/></clipPath></defs></svg>
