<svg width="220" height="160" fill="none" xmlns="http://www.w3.org/2000/svg"><g clip-path="url(#clip0)"><g clip-path="url(#clip1)"><path d="M203.716 170.771c3.681-2.189 6.486-5.556 9.359-8.728 6.24-6.878 13.151-13.112 20.054-19.329-1.76-1.832-4.752-1.527-7.209-.848-7.94 2.171-15.021 6.675-21.66 11.526-.298.22-.646.449-1.012.407-.399-.051-.68-.399-.926-.721-.697-.941-3.299-5.725-4.769-4.529-1.037.848.008 4.699.17 5.759.221 1.399 4.76 17.2 5.993 16.463z" stroke="#C9C9C9" stroke-miterlimit="10"/><path d="M205.467 162.611c-.969-2.51-4.166-3.452-6.826-3.028-2.661.433-5.05 1.841-7.609 2.689-3.74 1.23-7.956 1.306-11.187 3.554-.484.339-.994.882-.807 1.45.187.551.892.679 1.47.704 4.837.204 9.725-.84 14.052-2.994m7.873 4.673a489.954 489.954 0 0 1 25.902-25.386m-10.635 1.155a8.81 8.81 0 0 0 1.641 5.207m-13.27 1.79c.748 1.467 1.488 2.926 2.236 4.393m-.009-5.394c.603.941 1.207 1.874 1.811 2.816m.57-4.818a31.696 31.696 0 0 1 2.303 4.58M55.087 140.093c1.36 5.021.714 10.542-1.751 15.122-.128.238-.315.509-.587.509-.238 0-.416-.22-.552-.415a18.494 18.494 0 0 1-2.959-7.218m2.602-20.924c-6.538 9.643-13.067 19.295-19.604 28.939.476-.534.944-1.069 1.42-1.603m16.169-10.543a14.122 14.122 0 0 0-2.66-2.519c-.103.128-.213.255-.315.382m1.538 4.996l-2.091-2.519m.586 4.91c-.782-.627-1.564-1.255-2.346-1.874m-1.47 6.564a10.629 10.629 0 0 0-4.276-5.716m76.397-67.792c-5.611 14.24-11.272 28.659-13.219 43.832-.034.237-.051.517.128.679.178.161.561-.017.45-.229m-.578.245c-.731 2.188 1.598 4.741 3.851 4.207m7.004-20.356a49.322 49.322 0 0 0-3.162 12.697l41.527.89c1.896-6.412 3.783-12.824 5.678-19.227.221-.755-.034-2.002-.765-1.713m-24.651-36.929a35.112 35.112 0 0 0-5.535 6.073c1.055-.204.647-.05 1.531-.653a82.745 82.745 0 0 0-16.322 5.148m31.784-31.696a6.548 6.548 0 0 1-1.351 4.623m8.492-4.037c1.028 1.646.493 4.063-1.122 5.132m-6.333-16.005c-1.131 4.614-2.525 9.635-6.401 12.392-.375.263-.8.517-1.259.475-.459-.043-.892-.51-.722-.933 1.045 1.026 1.241 2.714.748 4.088-.493 1.382-1.564 2.485-2.746 3.35-3.145 2.307-7.311 3.155-11.111 2.282m15.174 19.651c2.007.662 4.021 1.323 6.027 1.976.357.119.732.246.961.543.23.297.196.814-.144.958m-6.682-22.069c1.48 1.484 3.953 1.858 5.807.865m3.136-7.887c-.145.644.374 1.221.807 1.721.434.5.825 1.23.451 1.773-.213.305-.604.433-.961.526-.952.246-1.921.424-2.89.534m35.687 37.056a19.109 19.109 0 0 0-4.718.204c-.697.118-1.411.288-1.989.678-.587.399-1.021 1.077-.961 1.781.093 1.018 1.173 1.671 2.193 1.79 1.012.119 2.04-.136 3.061-.11-2.109-.704-4.633.11-5.934 1.916.161.967 1.199 1.493 2.125 1.79 1.581.5 3.239.755 4.897.746a5.19 5.19 0 0 0-2.848.806c2.618 3.087 7.217-.789 8.033-3.452.782-2.57.672-5.691-1.156-7.811-1.87-2.172-5.279-2.579-7.88-1.527-2.049.831-2.738 2.086-.425 2.935 1.853.661 3.732.101 5.602.254z" stroke="#C9C9C9" stroke-miterlimit="10"/><path d="M142.832 67.974c13.585 4.877 28.81 5.09 42.513.551 2.304-.763 4.625-1.696 6.376-3.375 1.454-1.391 2.457-3.435 2.032-5.394-.612-2.8-3.766-4.25-6.614-4.648a20.089 20.089 0 0 0-8.858.746c1.386-.28 2.066-2.086 1.479-3.376-.586-1.28-2.074-1.976-3.485-2.01-1.411-.025-2.78.492-4.072 1.077.969-4.317-1.556-9.04-5.526-11.009-3.969-1.967-9.002-1.272-12.564 1.358-3.562 2.629-5.653 6.997-5.933 11.416-.825-1.044-2.381-1.425-3.605-.9-1.224.527-1.989 1.943-1.777 3.249-.952-1.247-2.941-.763-4.301.034-1.411.831-2.746 1.9-3.536 3.325-.799 1.433-.978 3.274-.162 4.69 1.08 1.891 2.406 1.077 3.928 1.645 1.385.535 2.499 2.044 4.105 2.621z" fill="#fff"/><path d="M139.849 214.008c-.884.034-.587-67.903 10.278-67.58 10.864.322 7.047 33.951 7.047 33.951s21.43-68.87 37.871-63.696c16.288 5.123-3.519 32.332-3.519 31.365 0-.967 16.738-43.332 26.42-34.919 9.683 8.414-9.98 37.506-9.98 37.506s18.014-35.953 27.11-32.4c-1.913 16.59-27.407 93.187-95.227 95.773z" fill="#F4D2C6"/><path d="M125.576 65.472c-.085-.407-14.579 5.343-14.579 5.343l-9.725 50.287 33.842-5.284 10.601-39.473-6.104-7.15-14.035-3.723z" fill="#E8EAF9"/><path d="M151.35 45.82c.442 2.927.587 5.895.502 8.855-.102 3.817-2.227 8.779-4.437 10.187-3.588 2.29-6.895 1.535-10.525.364-3.196-1.035-2.533-3.715-3.944-6.76-1.411-3.044-1.811-6.471-1.7-9.83.034-1.179.136-2.375.501-3.494.502-1.56 1.497-2.943 2.721-4.029 3.026-2.671 7.599-3.486 11.331-1.942 3.741 1.527 4.939 2.663 5.551 6.65z" fill="#FBBB9D"/><path d="M126.723 131.874s-15.148 31.076-33.238 32.739c-10.21.933-37.812-6.438-45.582-10.314l10.762-17.132s16.263 9.244 27.067 8.108c9.504-.992 15.752-17.921 15.752-17.921l25.239 4.52z" fill="#F4622F"/><path d="M142.315 65.49s-2.967 5.029-5.007 9.456c-.476 1.026-5.806 1.645-9.997-3.104-2.466-2.79-2.474-5.115-2.474-5.115s7.064-10.525 7.234-12.713c.17-2.189 4.268-4.258 4.268-4.258l5.976 15.733z" fill="#FBBB9D"/><path d="M141.787 66.397s-4.242-1.078-6.291-3.02c-4.046-3.833-4.709-8.125-4.709-8.125l-2.423 6.124s2.023 1.976 4.897 3.672c3.698 2.188 8.526 1.349 8.526 1.349z" fill="#EFA689"/><path d="M102.938 119.856s-5.525 6.548.17 10.169c5.696 3.622 31.207 2.681 46.305 1.383 4.828-.416 9.674-2.239 19.178 2.756 9.504 4.996 31.963 22.756 32.311 22.239.349-.517 12.794-16.607 12.794-16.607l-43.89-24.248s-8.467-3.622-13.992-3.444c-5.534.17-52.876 7.752-52.876 7.752z" fill="#FB804A"/><path d="M143.861 41.41s-2.499 5.869-7.506 7.243c0 0-1.003 8.363-6.512 10.61l-3.272 4.7s-7.558-2.57-7.362-10.331c.246-9.686 9.189-9.915 9.189-9.915s6.571-8.931 16.203-5.31c9.631 3.622 5.508 5.496 5.508 5.496l-6.248-2.493z" fill="#56413B"/><path d="M143.462 40.85s2.201 5.59 7.973 6.09c0 0 3.027-11.348-9.886-9.193" fill="#56413B"/><path d="M137.12 27.933l.043.026c.034-.043-.043-.026-.043-.026zm-8.008 7.947l-2.797 8.423 13.211.161.739-14.054-5.967 1.026a6.625 6.625 0 0 0-5.186 4.445z" fill="#B2ACAB"/><path d="M151.776 44.616l-.723-9.567a4.252 4.252 0 0 0-2.95-3.732l-3.596-1.145a4.27 4.27 0 0 0-2.014-.135l-6.147 1.051-2.397 13.3 17.827.228z" fill="#EDE1DF"/><path d="M126.315 44.303l25.461.314 5.789-1.824c1.385-.44 1.334-2.408-.068-2.773l-8.901-2.307a11.221 11.221 0 0 0-7.03.458l-15.251 6.132z" fill="#9E9695"/><path d="M125.806 65.116c-15.455 2.774-41.39 20.44-50.053 34.978-2.312 3.884.06 8.872 4.54 9.559 17.783 2.722 53.759-.212 53.759-.212l3.919-14.224-21.745-.042c0-.009 8.449-17.794 9.58-30.059z" fill="#5A66FF"/><path d="M49.05 139.448c.205 0 5.093 1.068 8.332-1.714 3.205-2.748 8.543-7.76 12.309-9.974 3.545-2.078-.57-3.079-2.312-2.205 0 0 0-1.874-3.086-1.272 0 0-1.275-1.875-3.486-.535 0 0-2.278-1.628-4.02.738-2.092 2.808-7.736 14.962-7.736 14.962z" fill="#E2982B"/><path d="M121.657 81.315c-.119.603-20.683 47.488-20.683 47.488l-24.635-1.212 16.118-29.5" fill="#5A66FF"/><path d="M44.147 125.716l.136.205c.128-.222-.136-.205-.136-.205z" fill="#E8EAF9"/><path d="M44.664 130.78c-3.57 1.298-13.286 25.173-17.426 34.121-.748 1.62.374 2.697 1.904 2.519l18.6-35.681c-1.258-.789-2.355-1.222-3.078-.959z" fill="#BABFD6"/><path d="M51.313 148.107l5.126-8.939c-.893-.789-2.134-1.977-3.486-3.215-.034.043-.06.085-.093.127-3.129 4.241-7.54 4.487-9.632 4.317l-7.956 15.267c.833 1.026 4.258 5.225 4.522 5.496.017.017.017.068 0 .136 1.955-1.722 3.987-3.927 6.061-6.811 0 0 3.417 10.305 6.07 9.143 2.652-1.162 6.537-6.437 6.537-6.437l-7.15-9.084z" fill="#E8EAF9"/><path d="M52.86 136.09c.034-.043.06-.085.093-.128-1.7-1.552-3.587-3.189-5.21-4.215l-4.515 8.66c2.092.161 6.504-.077 9.632-4.317zm-13.058 25.079c-.272-.272-3.69-4.47-4.523-5.496l-6.129 11.755c.28-.034.578-.102.885-.229 2.805-1.145 6.146-2.697 9.775-5.894 0-.077.009-.119-.008-.136z" fill="#302735"/><path d="M51.313 148.107l7.166 9.084s-5.202 7.616-7.48 6.59c-2.279-1.026-5.348-9.635-5.348-9.635" fill="#5A66FF"/><path d="M50.208 146.717s-4.31-2.85-5.875-1.078c-1.564 1.773-7.276 12.324-7.276 12.324.323.119 2.728 3.401 2.728 3.401s5.705-5.411 7.345-8.405c.995-1.815 3.078-6.242 3.078-6.242z" fill="#5A66FF"/><path d="M54.398 137.625l-8.535 16.861.468 1.179 9.342-17.192-1.275-.848z" fill="#302735"/><path d="M45.778 154.57c.12.178.825 1.849.825 1.849l10.481-16.708-.646-.543-6.46 9.253" fill="#302735"/><path d="M45.49 136.055c.203 0 5.091 1.069 8.33-1.713 3.205-2.748 8.544-7.761 12.31-9.974 3.544-2.078-.57-3.079-2.313-2.206 0 0 0-1.874-3.086-1.272 0 0-1.275-1.874-3.485-.534 0 0-2.278-1.629-4.021.738-2.083 2.807-7.736 14.961-7.736 14.961z" fill="#FFB031"/><path d="M63.817 122.163s-3.001 1.993-4.25 3.902c0 0 2.448-4.368 3.425-5.03 0 0 .63.11.825 1.128zm-3.085-1.272s-3.52 3.477-4.948 7.345c0 0 1.394-5.717 3.783-8.185-.008-.009.833.305 1.165.84zm138.895 36.326s-11.748.975-16.092 1.314c-4.344.34-4.344 2.29-3.316 2.867 1.021.585 2.1.535 2.1.535s-1.709.729-1.173 1.56c.536.831 2.389 1.171 2.389 1.171l13.312-2.579 3.511-1.705-.731-3.163zm-142.381-36.86s-2.694 2.485-3.63 5.699c0 0-.084-3.817 2.262-6.208-.009 0 .79.101 1.368.509z" fill="#E2982B"/><path d="M232.619 141.391c-2.848-.849-9.682.347-20.912 6.233l-10.456 4.53s-6.656-1.162-7.396-.314c-.739.839 3.911 4.003 3.911 4.003s2.048 7.192 4.054 11.45l30.799-25.902z" fill="#E8EAF9"/><path d="M67.362 135.283s2.865-.907 4.098-4.147c0-.009 1.232 4.334-4.098 4.147zm.85 2.07s4.293.458 6.758-4.478c0 .008 1.624 6.556-6.758 4.478z" fill="#302735"/><path d="M224.169 142.069c-2.491.916-12.972 5.479-12.972 5.479s.578-12.773-.995-12.943c-1.581-.169-6.571 2.986-7.812 4.063-1.25 1.077 2.414 11.865 2.414 11.865s.723 7.634 3.8 6.472 17.214-11.552 17.214-11.552l-1.649-3.384z" fill="#5A66FF"/><path d="M196.729 155.08s.858 1.51.858 1.289c0-.212 14.12-8.736 14.12-8.736l-.536-1.662-14.442 9.109z" fill="#302735"/><path d="M203.895 170.286c2.321 1.052 30.696-26.513 30.382-27.497-.162-.517-.825-1.145-1.649-1.391l-30.799 25.903c.034.068.068.144.102.212.17.204.374.619.587 1.128.484.848.952 1.45 1.377 1.645z" fill="#BABFD6"/><path d="M207.814 162.365s-2.959-4.283-6.648-3.495c-3.689.781-13.78 3.741-17.894 4.945-4.115 1.204-5.747 2.171-5.322 3.138.425.967 2.295 1.569 3.264 1.323 0 0-.229 1.807 1.692 2.536 1.403.535 2.508-.127 2.508-.127s.187 2.053 3.732 1.45c0 0 1.419 2.206 4.344 1.035 2.303-.933 14.324-10.805 14.324-10.805z" fill="#FFB031"/><path d="M140.164 68.992s9.487 10.984 11.127 15.453c2.848 7.77-3.213 28.609-3.213 28.609l-15.557 2.239 7.719-45.834-.076-.467z" fill="#5A66FF"/><path d="M142.187 32.233c-.28-.051-1.13-.034-1.13-.034l-.026 2.299 1.224.042s.935-.119 1.003-1.06c.068-.942-.79-1.196-1.071-1.247zm-.025 1.586l-.374.025.008-.907s.213.008.349.034c.136.025.382.127.374.44 0 .315-.357.408-.357.408zm2.669-1.612a1.253 1.253 0 0 0-1.284 1.222 1.26 1.26 0 0 0 1.224 1.289 1.252 1.252 0 0 0 1.284-1.221 1.265 1.265 0 0 0-1.224-1.29zm-.077 1.722a.468.468 0 0 1-.459-.483.468.468 0 0 1 .485-.458c.263.008.467.22.459.483a.474.474 0 0 1-.485.458z" fill="#000200"/><path d="M141.006 35.065s.782.569 2.388.594c1.616.034 2.253-.483 2.253-.483l-.017.84s-1.173.686-2.329.627c-1.156-.05-2.329-.78-2.329-.78l.034-.798z" fill="#FC484C"/><path d="M133.355 109.237l-.834 6.056 15.557-2.239 1.819-9.567-11.518-2.63-2.882 3.368-2.142 5.012z" fill="#4B5AC9"/><path d="M145.698 52.776c.425.602.977 1.136 1.249 1.815.34.856.179 1.89-.416 2.595a2.638 2.638 0 0 1-2.491.865c.944-.288 1.624-1.28 1.539-2.265-.043-.474-.238-.924-.4-1.365-.212-.585-.374-1.196-.399-1.815-.017-.28-.034-1.57.374-1.578.076.662.127 1.17.544 1.748z" fill="#EFA689"/><path d="M141.294 51.605c0-.475.272-.873.663-1.077a1.22 1.22 0 0 0-.604-.17 1.214 1.214 0 1 0 0 2.426c.196 0 .383-.05.544-.136a1.21 1.21 0 0 1-.603-1.043z" fill="#fff"/><path d="M142.569 51.57a1.2 1.2 0 0 0-.612-1.043 1.2 1.2 0 0 0-.051 2.12 1.21 1.21 0 0 0 .663-1.076z" fill="#3A282D"/><path d="M148.494 51.605c0-.475.272-.873.663-1.077a1.214 1.214 0 0 0-.603-.17 1.214 1.214 0 1 0 0 2.426c.195 0 .382-.05.544-.136a1.212 1.212 0 0 1-.604-1.043z" fill="#fff"/><path d="M149.778 51.57a1.2 1.2 0 0 0-.612-1.043 1.2 1.2 0 0 0-.051 2.12 1.21 1.21 0 0 0 .663-1.076z" fill="#3A282D"/><path d="M139.144 57.084s.586 2.968 4.497 3.045l-4.497-3.045z" fill="#D37959"/><path d="M160.005 78.686c-1.539 7.057-6.231 27.964-8.067 36.157-.391 1.747.892 3.41 2.686 3.494l27.33 1.188a2.884 2.884 0 0 0 2.958-2.358l6.597-36.216a2.87 2.87 0 0 0-2.703-3.384l-25.86-1.145a2.894 2.894 0 0 0-2.941 2.264z" fill="#302735"/><path d="M182.787 80.01l-25.452-1.12a2.311 2.311 0 0 0-2.363 1.815c-1.462 6.734-6.554 29.422-8.305 37.268a2.309 2.309 0 0 0 2.159 2.807l28.495 1.239-12.318-23.316 17.784-18.693z" fill="#FFBF61"/><path d="M179.692 120.118l6.801-37.327c.255-1.374-.773-2.654-2.176-2.722L182.795 80l-17.792 18.693 12.318 23.316c1.147.059 2.159-.755 2.371-1.892z" fill="#E2982B"/><path d="M137.919 95.31l-2.49 8.999 4.556.025 1.666-9.228c-1.844.102-3.732.204-3.732.204z" fill="#FBBB9D"/><path d="M156.655 105.022l5.313-.78a3.95 3.95 0 0 0 .757-.187c.79-.271 2.669-.924 3.842-1.348.323-.119.4-.56.119-.764-1.241-.873-4.208-.119-5.185.034-.162.026-4.157.348-4.157.348l5.916-1.484s4.608-1.357 6.265-2.647c.272-.212.196-.653-.136-.737-2.465-.628-5.814.746-5.814.746l-5.917 1.179s9.496-2.536 12.293-4.555c.297-.22.263-.687-.077-.84-1.292-.602-4.004.153-6.316 1.078-2.185.543-4.115.924-5.109 1.128-.23.551-.417.085 0 0 2.55-1.086 9.759-4.623 9.597-4.903-.204-.364-.909-.916-1.997-.771-2.279.296-8.612 2.519-9.436 2.68-.825.152-4.412.203-4.412.203l.586-2.909s-2.499.874-3.375 1.315c-1.827.907-3.833 2.934-4.25 3.036-.196.051-2.916.178-4.59.28l-2.126 12.095 16.211-2.172c.664.06 1.335.051 1.998-.025zm33.196-14.953s4.03-1.366 4.931-.832c1.096.645-.935 3.444-5.662 4.852l.731-4.02z" fill="#fff"/><path d="M189.987 93.792s2.72-.738 3.043 1.4c.264 1.738-7.192 3.528-9.988 4.139-.536.118-1.003-.4-.816-.916.518-1.4 2.21-3.681 7.761-4.623z" fill="#fff"/><path d="M189.231 97.362c.153 0 1.998.246 2.295 1.196.298.95-.603 1.747-2.1 2.248-.603.203-5.134 1.543-7.183 2.035-.561.136-1.02-.441-.773-.967.484-1.017 1.36-2.349 2.771-2.815 2.389-.798 4.99-1.697 4.99-1.697z" fill="#fff"/><path d="M187.675 100.993c.161-.043 2.737-.814 3.069.873.331 1.68-6.223 3.427-7.532 2.935-.655-.254-.434-2.621 4.463-3.808z" fill="#fff"/><path d="M185.337 106.642c.128-.034 4.905-.433 4.446-2.07-.459-1.637-2.762-1.103-3.953-.568-1.198.526-2.805 3.206-.493 2.638z" fill="#fff"/><path d="M152.855 109.526l-1.759 7.964h1.198l1.692-8.177-1.131.213zm2.261-.068l-1.606 7.871 1.487.076 1.514-7.947h-1.395zm2.398.042l-1.403 7.905 1.488.119 1.36-7.939-1.445-.085z" fill="#302735"/><path d="M85.81 110.136l23.147.449-2.916 6.633-20.903-5.666.671-1.416zm19.985-25.555l-8.017 8.761 8.969.475-.952-9.236z" fill="#4B5AC9"/><path d="M116.038 110.501c-1.045 2.918-1.488 5.097-2.448 7.778l-8.467 1.229 3.128-8.948m12.632-15.377c3.74-14.215 4.437-26.573 4.437-26.573l-9.384 26.573h4.947z" fill="#CCCFE2"/><path d="M127.183 48.679c.229.059 26.089-.11 26.089-.11s.544 6.072-3.375 6.233c-4.523.178-5.254-5.428-5.254-5.428s-.059 5.666-4.284 5.818c-3.919.145-4.42-4.758-4.42-4.758l-7.532-.305-1.224-1.45z" fill="#302735"/><path d="M139.433 47.475c-.281.195-.153.645.195.67 1.08.085 4.123.28 4.14-.28.026-.678-.586-.916-1.921-.89-.893.025-1.947.17-2.414.5z" fill="#56413B"/><path d="M102.505 184.061s-22.315-24.316-32.38-19.278c-10.065 5.038 7.625 23.18 7.625 23.18s-12.658-7.557-12.199-.67c.46 6.887 21.958 15.953 21.958 15.953s-12.199 2.52-10.83 5.378c1.368 2.858 27.602 7.896 36.605 7.726 2.881-.05 21.983-.059 28.639-1.882-4.361-7.914-39.418-30.407-39.418-30.407z" fill="#F4D2C6"/><path d="M120.025 184.145s-23.54-13.214-20.156-18.345c3.392-5.14 9.674.755 9.674.755S95.678 147.2 97.557 142.06c2.414-6.59 8.968 1.433 8.968 1.433s-2.635-14.537 4.65-13.782c7.285.755 4.769 27.065 4.769 27.065s-1.13-10.899 5.279-8.143c6.41 2.757 4.395 36.284 4.395 36.284l-5.593-.772z" fill="#F7B1A1"/><path d="M147.72 48.238c.808.068 3.418.272 3.163-.568-.255-.84-3.996-.857-4.072-.05-.034.355.637.593.909.618z" fill="#56413B"/><path d="M148.163 153.01l-4.973 38.829-17.563-6.93s-9.07-21.297-14.485-32.603a1.051 1.051 0 0 0-1.48-.449c-.008 0-.008.008-.017.008a1.047 1.047 0 0 0-.476 1.222c3.596 11.28 10.864 31.05 10.864 31.05l-34.088-11.509c-.978-.331-1.692.933-.91 1.595l4.021 3.409c.57.484 1.199.882 1.87 1.204l49.407 35.988s9.81-1.587 12.318-2.545c2.057-.789-1.81-47.454-1.326-59.065.043-.984-.875-1.713-1.836-1.501l-.102.025c-.638.136-1.139.628-1.224 1.272z" fill="#D3AA9C"/><path d="M143.955 161.746s-3.349-17.591-9.733-14.325c-6.384 3.265 6.299 27.853 6.299 27.853s-6.223-12.968-11.884-8.592c-5.662 4.377 11.323 23.638 11.323 23.638l2.55-12.018 1.445-16.556z" fill="#F4D2C6"/><path d="M180.041 32.115s-2.916-10.874-6.197-10.229c-3.281.645-11.493 7.71-10.541 8.66.952.95 8.764-4.996 8.764-4.996s-7.302 5.818-6.605 6.81c.689.993 7.345-3.79 7.345-3.79s-6.002 5.258-4.88 6.25c1.122.993 6.563-3.316 6.563-3.316l3.196 4.266" fill="#E2CFCC"/><path d="M177.347 40.715c-2.032-3.792 2.201-9.78 2.201-9.78l-1.139-1.806s-2.661-.085-2.839-.433c-.17-.347 2.695-.602 2.695-.602s.085-1.603 1.428-2.222c1.334-.619 3.145.373 3.919 1.264.527.602 1.606 2.205 1.606 2.205s1.803-6.802 3.401-6.59c1.598.212 12.394 7.582 11.45 8.66-.952 1.077-9.113-5.174-9.113-5.174s6.563 4.91 6.223 5.606c-.34.696-7.166-4.181-7.166-4.181s4.233 4.181 3.97 5.131c-.255.95-4.795-1.985-4.795-1.985s2.678 2.977 2.423 3.876c-.255.9-4.837-2.281-4.837-2.281s-3.026 13.358-8.467 16.42c-5.44 3.062-8.594 1.383-8.552.687.043-.695 7.26-2.324 7.26-2.324s-9.07 1.722-8.339.306c.731-1.425 8.339-2.324 8.339-2.324s-8.722.212-7.948-1.468c.773-1.68 8.076-.772 8.076-.772s-7.685-.56-7.167-1.984c.502-1.434 7.371-.23 7.371-.23z" fill="#D3BFBA"/><path d="M180.729 29.341a1.477 1.477 0 0 0 0-2.951 1.477 1.477 0 1 0 0 2.951z" fill="#fff"/><path d="M180.271 28.4a.4.4 0 1 0 0-.798.4.4 0 0 0 0 .798z" fill="#302735"/><path d="M178.034 38.671c-.034-.093-3.289-3.698-4.42-2.9-1.131.805-2.907 2.221-2.355 2.383.553.16 2.482-1.646 2.482-1.646s-2.031 1.739-1.453 2.061c.578.322 2.032-1.51 2.032-1.51l3.128 1.934" fill="#EFA689"/><path d="M179.625 39.349s-4.548-1.67-5.356-1.026c-.807.644-.45 3.766.196 3.732.646-.034.221-2.672.221-2.672s.552 2.256 1.037 2.188c.484-.068-.102-2.281-.102-2.281l3.23.958" fill="#EFA689"/><path d="M192.631 37.475a.465.465 0 0 1 .425.127c.705.696 3.23 3.266 2.55 3.698-.604.382-2.482-1.916-3.349-3.053a.475.475 0 0 1 .289-.755l.085-.017zm5.499-3.41a.498.498 0 0 0-.331.526c.17 1.518.859 6.878 1.972 6.632 1.071-.237.111-5.334-.238-7.048a.502.502 0 0 0-.654-.373l-.749.263z" fill="#E2CFCC"/></g></g><defs><clipPath id="clip0"><path d="M0 0h220v160H0V0z" fill="#fff"/></clipPath><clipPath id="clip1"><path fill="#fff" d="M27 6h211v210.494H27z"/></clipPath></defs></svg>